<?xml version="1.0" encoding="UTF-8" standalone="no"?>
<svg
   version="1.1"
   viewBox="0 0 1003 1045"
   width="1003.0pt"
   height="1045.0pt"
   id="svg171"
   xmlns="http://www.w3.org/2000/svg"
   xmlns:svg="http://www.w3.org/2000/svg">
  <defs
     id="defs171" />
  <g
     id="g171"
     transform="matrix(1,0,0,0.81237525,0,34.305111)">
    <g
       id="layer1"
       style="display:inline">
      <path
         d="m 972.54,782.6 0.51,-0.11 0.25,-0.05 c -50.79,25.52 -101.72,50.77 -152.54,76.23 -0.22,-1.44 -0.99,-3.12 -0.6,-4.55 1.35,-2.33 3.19,-4.4 4.93,-6.44 48.34,-21.47 96.75,-42.82 145.12,-64.21 0.77,-0.31 1.54,-0.61 2.33,-0.87 z"
         fill="#aa8244"
         id="path154" />
      <path
         d="m 30.97,796.98 c 4.27,1.2 8.25,3.02 12.35,4.69 62.98,25.91 125.92,52.03 188.91,77.92 0.1,2.96 0.71,6.24 0.08,9.16 -0.66,0.71 -1.39,1.37 -2.18,1.98 C 163.83,859.34 97.22,828.49 30.97,796.98 Z"
         fill="#b18c4c"
         id="path155" />
      <path
         d="m 825.09,847.68 c -1.74,2.04 -3.58,4.11 -4.93,6.44 -0.39,1.43 0.38,3.11 0.6,4.55 -15.15,7.62 -30.33,15.16 -45.5,22.72 l -2.31,-0.65 c 3.69,-6.5 10.26,-9.89 14.05,-16.28 12.69,-5.61 25.33,-11.33 38.09,-16.78 z"
         fill="#b69352"
         id="path156" />
      <path
         d="m 787,864.46 c -3.79,6.39 -10.36,9.78 -14.05,16.28 l 2.31,0.65 c -10,5.12 -20.1,10.04 -30.12,15.1 -0.67,-0.63 -1.34,-1.26 -2,-1.89 5.26,-6.36 12.44,-11.32 16.9,-18.25 8.97,-3.99 17.93,-8.02 26.96,-11.89 z"
         fill="#bd9d5a"
         id="path157" />
      <path
         d="m 760.04,876.35 c -4.46,6.93 -11.64,11.89 -16.9,18.25 0.66,0.63 1.33,1.26 2,1.89 -10.12,5.1 -20.28,10.1 -30.4,15.19 -0.28,-2.07 -1.54,-4.08 0.1,-5.86 4.59,-5.47 11.13,-10.22 15.2,-16.23 9.99,-4.43 19.95,-8.92 30,-13.24 z"
         fill="#c4a662"
         id="path158" />
      <path
         d="m 232.23,879.59 c 28.37,11.54 56.6,23.4 84.95,34.99 -0.6,3.4 -0.89,6.73 -0.66,10.17 -0.07,2.24 0.61,4.36 -1.36,5.98 -28.3,-13.43 -56.73,-26.58 -85.03,-40 0.79,-0.61 1.52,-1.27 2.18,-1.98 0.63,-2.92 0.02,-6.2 -0.08,-9.16 z"
         fill="#c5a964"
         id="path159" />
      <path
         d="m 730.04,889.59 c -4.07,6.01 -10.61,10.76 -15.2,16.23 -1.64,1.78 -0.38,3.79 -0.1,5.86 -9.16,4.63 -18.37,9.16 -27.53,13.78 -0.01,-2.52 -0.67,-5.68 0.24,-8.06 3.99,-5.4 9.99,-8.93 13.53,-14.98 9.67,-4.31 19.34,-8.64 29.06,-12.83 z"
         fill="#caaf69"
         id="path160" />
      <path
         d="m 700.98,902.42 c -3.54,6.05 -9.54,9.58 -13.53,14.98 -0.91,2.38 -0.25,5.54 -0.24,8.06 -9.34,4.74 -18.75,9.33 -28.1,14.05 -0.52,-0.55 -1.03,-1.11 -1.55,-1.67 0.9,-3.16 0.55,-6.99 3.15,-9.13 4.88,-4.9 9.99,-9.51 14.4,-14.86 8.59,-3.89 17.21,-7.71 25.87,-11.43 z"
         fill="#d0b870"
         id="path161" />
      <path
         d="m 675.11,913.85 c -4.41,5.35 -9.52,9.96 -14.4,14.86 -2.6,2.14 -2.25,5.97 -3.15,9.13 0.52,0.56 1.03,1.12 1.55,1.67 -9.44,4.76 -18.92,9.42 -28.36,14.17 -0.81,-3.89 -1.45,-8.4 -0.28,-12.28 3.41,-4.73 8.57,-7.71 11.53,-12.94 11.02,-4.91 22.02,-9.87 33.11,-14.61 z"
         fill="#d6c077"
         id="path162" />
      <path
         d="m 317.18,914.58 c 18.77,7.59 37.42,15.49 56.17,23.13 0.82,5.88 0.57,11.67 0.11,17.55 0,1.1 -0.56,1.55 -1.27,2.32 -18.96,-9.04 -38.06,-17.8 -57.03,-26.85 1.97,-1.62 1.29,-3.74 1.36,-5.98 -0.23,-3.44 0.06,-6.77 0.66,-10.17 z"
         fill="#d4be75"
         id="path163" />
      <path
         d="m 642,928.46 c -2.96,5.23 -8.12,8.21 -11.53,12.94 -1.17,3.88 -0.53,8.39 0.28,12.28 -9.28,4.71 -18.63,9.3 -27.93,13.98 -0.41,-5.04 -0.61,-10.38 -0.11,-15.39 2.62,-3.88 6.79,-6.52 9.34,-10.6 9.97,-4.43 19.92,-8.92 29.95,-13.21 z"
         fill="#dcc97e"
         id="path164" />
      <path
         d="m 373.35,937.71 c 13.74,5.56 27.39,11.34 41.11,16.93 0.05,3.03 0.17,6.03 -0.16,9.04 -0.42,3.58 0.79,7.16 0.11,10.61 -0.1,1 -1.52,1.53 -2.18,2.17 -13.29,-6.41 -26.72,-12.53 -40.04,-18.88 0.71,-0.77 1.27,-1.22 1.27,-2.32 0.46,-5.88 0.71,-11.67 -0.11,-17.55 z"
         fill="#decc81"
         id="path165" />
      <path
         d="m 612.05,941.67 c -2.55,4.08 -6.72,6.72 -9.34,10.6 -0.5,5.01 -0.3,10.35 0.11,15.39 -7.96,4.07 -16.01,7.94 -23.96,12.02 -3.23,-2.27 -2.29,-5.09 -2.38,-8.43 0.15,-2.98 -0.31,-6.08 0.18,-9.02 0.94,-2.46 2.86,-4.61 4.26,-6.82 10.36,-4.61 20.7,-9.27 31.13,-13.74 z"
         fill="#e2d285"
         id="path166" />
      <path
         d="m 414.46,954.64 c 10.69,4.31 21.29,8.82 31.96,13.16 -0.25,7.59 -0.36,15.2 -0.64,22.78 l -1.82,0.76 c -10.57,-4.98 -21.15,-9.93 -31.73,-14.88 0.66,-0.64 2.08,-1.17 2.18,-2.17 0.68,-3.45 -0.53,-7.03 -0.11,-10.61 0.33,-3.01 0.21,-6.01 0.16,-9.04 z"
         fill="#e6d78a"
         id="path167" />
      <path
         d="m 580.92,955.41 c -1.4,2.21 -3.32,4.36 -4.26,6.82 -0.49,2.94 -0.03,6.04 -0.18,9.02 0.09,3.34 -0.85,6.16 2.38,8.43 -7.35,3.66 -14.71,7.31 -22.05,10.99 -2.12,-4.29 -0.98,-8.13 -1.26,-12.67 0.03,-2.17 -0.46,-4.95 0.49,-6.95 1.79,-2.59 4.05,-4.88 6.07,-7.3 6.21,-2.91 12.52,-5.63 18.81,-8.34 z"
         fill="#e7d98b"
         id="path168" />
      <path
         d="m 562.11,963.75 c -2.02,2.42 -4.28,4.71 -6.07,7.3 -0.95,2 -0.46,4.78 -0.49,6.95 0.28,4.54 -0.86,8.38 1.26,12.67 -6.55,3.3 -13.12,6.57 -19.69,9.84 l -1.53,-0.77 c -0.03,-4.26 0.48,-8.48 0.38,-12.74 0.04,-2.57 -0.25,-5.34 0.31,-7.86 0.91,-2.01 2.37,-3.82 3.62,-5.63 7.39,-3.29 14.74,-6.64 22.21,-9.76 z"
         fill="#ecdf90"
         id="path169" />
      <path
         d="m 446.42,967.8 c 8.22,3.33 16.38,6.8 24.6,10.14 -0.19,8.5 0.46,17.28 -0.94,25.68 -8.71,-4.1 -17.43,-8.15 -26.12,-12.28 l 1.82,-0.76 c 0.28,-7.58 0.39,-15.19 0.64,-22.78 z"
         fill="#ecdf90"
         id="path170" />
      <path
         d="m 539.9,973.51 c -1.25,1.81 -2.71,3.62 -3.62,5.63 -0.56,2.52 -0.27,5.29 -0.31,7.86 0.1,4.26 -0.41,8.48 -0.38,12.74 l 1.53,0.77 c -10.53,5.39 -21.19,10.52 -31.72,15.92 -1.33,0.59 -2.86,1.49 -4.35,1.46 -1.7,-0.41 -3.36,-1.23 -4.95,-1.97 -8.63,-4.19 -17.38,-8.12 -26.02,-12.3 1.4,-8.4 0.75,-17.18 0.94,-25.68 9.46,3.82 18.89,7.81 28.32,11.7 1.82,0.9 3.16,0.34 4.9,-0.36 11.86,-5.31 23.73,-10.62 35.66,-15.77 z"
         fill="#f2e797"
         id="path171"
         style="display:inline" />
    </g>
  </g>
  <g
     id="g172"
     transform="matrix(1,0,0,0.8726768,0,215.71315)">
    <g
       id="layer2"
       style="display:inline">
      <path
         d="m 503.91,78.05 c 12.69,4.91 25.4,9.67 38.09,14.57 -2.83,0.76 -5.75,2 -5.91,5.36 -0.17,6.05 -0.39,12.14 -0.28,18.19 -10.32,-3.3 -20.63,-6.65 -30.91,-10.08 -2.08,-0.7 -3.89,-1.09 -6.02,-0.28 -7.8,2.54 -15.58,5.16 -23.41,7.6 -0.25,-7.04 -0.52,-14.07 -0.61,-21.12 -2.98,-0.67 -5.96,-1.28 -9.01,-1.55 11.04,-4.33 22.14,-8.44 33.19,-12.73 1.94,-0.77 2.93,-0.69 4.87,0.04 z"
         fill="#f2e897"
         id="path2" />
      <path
         d="m 465.85,90.74 c 3.05,0.27 6.03,0.88 9.01,1.55 0.09,7.05 0.36,14.08 0.61,21.12 -16.38,5.27 -32.7,10.73 -49.1,15.92 -0.16,-5.91 0.75,-11.34 -0.5,-17.15 -3.99,-1.02 -8.01,-1.59 -12.14,-1.52 17.32,-6.78 34.76,-13.26 52.12,-19.92 z"
         fill="#eadd8f"
         id="path3" />
      <path
         d="m 542,92.62 c 11.99,4.65 24.04,9.14 36.03,13.78 -1.1,0.7 -2.3,1.4 -3.24,2.31 -1.25,6.4 1.2,13.39 -1.67,19.54 -12.46,-3.96 -24.86,-8.11 -37.31,-12.08 -0.11,-6.05 0.11,-12.14 0.28,-18.19 0.16,-3.36 3.08,-4.6 5.91,-5.36 z"
         fill="#eadc8e"
         id="path4" />
      <path
         d="m 578.03,106.4 c 9.83,3.81 19.72,7.49 29.54,11.32 -4.73,5.19 -9.97,9.84 -14.63,15.08 0.62,0.82 1.24,1.65 1.86,2.47 -7.24,-2.31 -14.44,-4.72 -21.68,-7.02 2.87,-6.15 0.42,-13.14 1.67,-19.54 0.94,-0.91 2.14,-1.61 3.24,-2.31 z"
         fill="#e3d286"
         id="path5" />
      <path
         d="m 413.73,110.66 c 4.13,-0.07 8.15,0.5 12.14,1.52 1.25,5.81 0.34,11.24 0.5,17.15 -18.34,5.89 -36.64,11.92 -54.97,17.83 0.81,-4.35 0.87,-8.51 0.46,-12.9 -4.98,-1.36 -10.08,-1.75 -15.23,-1.76 18.98,-7.41 38.07,-14.54 57.1,-21.84 z"
         fill="#dfcd82"
         id="path6" />
      <path
         d="m 607.57,117.72 c 5.16,1.92 10.29,3.94 15.44,5.89 -2.47,0.71 -5.16,1.67 -5.8,4.48 -0.52,4.72 -0.08,9.54 -0.36,14.3 -7.37,-2.33 -14.7,-4.77 -22.05,-7.12 -0.62,-0.82 -1.24,-1.65 -1.86,-2.47 4.66,-5.24 9.9,-9.89 14.63,-15.08 z"
         fill="#decc81"
         id="path7" />
      <path
         d="m 623.01,123.61 c 9.61,3.71 19.26,7.34 28.88,11.04 -3.47,2.1 -6.54,5 -9.01,8.19 -1.3,2.07 -1.16,5.12 -1.46,7.51 -8.21,-2.61 -16.37,-5.34 -24.57,-7.96 0.28,-4.76 -0.16,-9.58 0.36,-14.3 0.64,-2.81 3.33,-3.77 5.8,-4.48 z"
         fill="#d9c57b"
         id="path8" />
      <path
         d="m 356.63,132.5 c 5.15,0.01 10.25,0.4 15.23,1.76 0.41,4.39 0.35,8.55 -0.46,12.9 -6.01,1.87 -11.98,3.88 -17.98,5.78 -1.31,-0.85 -2.62,-1.7 -3.93,-2.56 0.01,-3.05 -0.29,-6.07 -0.68,-9.1 -3.77,-0.2 -7.44,-0.75 -11.13,-1.51 6.28,-2.5 12.61,-4.9 18.95,-7.27 z"
         fill="#d7c278"
         id="path9" />
      <path
         d="m 651.89,134.65 c 11.34,4.38 22.73,8.66 34.08,13.03 -1.55,0.47 -3.02,0.91 -4.21,2.06 -2.95,2.69 -5.62,5.67 -8.45,8.48 0.51,0.99 1.01,1.97 1.52,2.95 -11.15,-3.56 -22.26,-7.27 -33.41,-10.82 0.3,-2.39 0.16,-5.44 1.46,-7.51 2.47,-3.19 5.54,-6.09 9.01,-8.19 z"
         fill="#d3bc74"
         id="path10" />
      <path
         d="m 337.68,139.77 c 3.69,0.76 7.36,1.31 11.13,1.51 0.39,3.03 0.69,6.05 0.68,9.1 1.31,0.86 2.62,1.71 3.93,2.56 -9.38,3.01 -18.72,6.1 -28.1,9.11 0.19,-3.64 0.25,-7.28 0.35,-10.93 -5.64,-0.17 -11.28,-0.18 -16.91,-0.31 9.61,-3.76 19.25,-7.44 28.92,-11.04 z"
         fill="#d2bb72"
         id="path11" />
      <path
         d="m 685.97,147.68 c 12.18,4.74 24.44,9.28 36.61,14.03 -3.63,3.81 -7.35,7.53 -10.93,11.37 -12.3,-3.9 -24.53,-8 -36.82,-11.91 -0.51,-0.98 -1.01,-1.96 -1.52,-2.95 2.83,-2.81 5.5,-5.79 8.45,-8.48 1.19,-1.15 2.66,-1.59 4.21,-2.06 z"
         fill="#cbb26b"
         id="path12" />
      <path
         d="m 308.76,150.81 c 5.63,0.13 11.27,0.14 16.91,0.31 -0.1,3.65 -0.16,7.29 -0.35,10.93 -8.29,2.64 -16.55,5.4 -24.84,8.04 -0.65,-3.32 -1.08,-6.59 -1.02,-9.99 -3.94,0.05 -7.72,0.13 -11.47,-1.29 6.87,-2.8 13.83,-5.4 20.77,-8 z"
         fill="#cdb36c"
         id="path13" />
      <path
         d="m 287.99,158.81 c 3.75,1.42 7.53,1.34 11.47,1.29 -0.06,3.4 0.37,6.67 1.02,9.99 -10.43,3.32 -20.81,6.77 -31.24,10.1 -0.27,-2.03 -0.54,-4.06 -0.81,-6.09 -5.67,0.05 -11.2,-0.11 -16.73,-1.46 12.06,-4.69 24.15,-9.33 36.29,-13.83 z"
         fill="#c6aa65"
         id="path14" />
      <path
         d="m 722.58,161.71 c 11.33,4.35 22.7,8.62 34.01,13.02 -2.77,2.74 -5.39,5.63 -8.12,8.41 0.05,0.64 0.09,1.27 0.13,1.91 -12.33,-3.94 -24.61,-8.04 -36.95,-11.97 3.58,-3.84 7.3,-7.56 10.93,-11.37 z"
         fill="#c4a662"
         id="path15" />
      <path
         d="m 251.7,172.64 c 5.53,1.35 11.06,1.51 16.73,1.46 0.27,2.03 0.54,4.06 0.81,6.09 -12.33,3.94 -24.62,8.01 -36.94,11.96 -0.19,-1.61 -0.38,-3.23 -0.56,-4.84 -4.65,-0.91 -9.33,-1.55 -14.07,-1.67 11.31,-4.4 22.67,-8.7 34.03,-13 z"
         fill="#bfa05c"
         id="path16" />
      <path
         d="m 756.59,174.73 c 12.82,4.9 25.65,9.74 38.45,14.68 -3.44,2.02 -5.98,4.9 -8.51,7.91 -12.66,-4.03 -25.26,-8.25 -37.93,-12.27 -0.04,-0.64 -0.08,-1.27 -0.13,-1.91 2.73,-2.78 5.35,-5.67 8.12,-8.41 z"
         fill="#bc9c59"
         id="path17" />
      <path
         d="m 217.67,185.64 c 4.74,0.12 9.42,0.76 14.07,1.67 0.18,1.61 0.37,3.23 0.56,4.84 -16.63,5.32 -33.2,10.81 -49.82,16.13 0.53,-3.25 0.55,-5.83 -0.53,-8.99 11.89,-4.6 23.81,-9.11 35.72,-13.65 z"
         fill="#b69452"
         id="path18" />
      <path
         d="m 795.04,189.41 c 10.67,4.11 21.38,8.13 32.05,12.27 -2.43,1.97 -4.49,4.28 -6.5,6.65 -11.38,-3.6 -22.7,-7.38 -34.06,-11.01 2.53,-3.01 5.07,-5.89 8.51,-7.91 z"
         fill="#b49150"
         id="path19" />
      <path
         d="m 181.95,199.29 c 1.08,3.16 1.06,5.74 0.53,8.99 -46.63,15.05 -93.22,30.26 -139.83,45.35 -3.67,1.18 -7.31,2.41 -11.06,3.29 3.34,-1.54 6.79,-2.79 10.22,-4.11 46.69,-17.89 93.45,-35.62 140.14,-53.52 z"
         fill="#a98244"
         id="path20" />
      <path
         d="m 827.09,201.68 c 16.29,6.26 32.63,12.43 48.92,18.69 -2,1.1 -3.28,2.6 -4.57,4.43 -16.97,-5.43 -33.9,-11 -50.85,-16.47 2.01,-2.37 4.07,-4.68 6.5,-6.65 z"
         fill="#ac8546"
         id="path21" />
      <path
         d="m 876.01,220.37 c 31.73,12.25 63.68,24.1 95.32,36.56 -3.23,-0.76 -6.38,-1.77 -9.53,-2.81 -30.13,-9.75 -60.23,-19.58 -90.36,-29.32 1.29,-1.83 2.57,-3.33 4.57,-4.43 z"
         fill="#a2773b"
         id="path22" />
    </g>
  </g>
  <g
     id="layer3"
     style="display:none">
    <path
       d="M 0,0 H 1003 V 1045 H 0 Z"
       fill="#ffffff"
       id="path1"
       style="display:inline" />
  </g>
  <g
     id="g173">
    <g
       id="layer4"
       style="display:inline">
      <path
         d="m 130.44,684.13 c 4.13,-0.34 8.32,-0.08 12.46,-0.09 -0.02,1.25 -0.04,2.5 -0.06,3.75 -2.7,0 -5.41,-0.02 -8.11,-0.05 -0.09,0.95 -0.18,1.9 -0.26,2.85 1.81,0.02 3.62,0.03 5.43,0.04 0,1.23 0,2.45 0,3.67 -1.81,0.02 -3.62,0.03 -5.43,0.04 0.07,0.98 0.16,1.95 0.24,2.92 2.72,-0.02 5.44,-0.03 8.15,-0.04 -0.01,1.27 -0.02,2.54 -0.03,3.8 -4.17,0.11 -8.33,0.12 -12.49,-0.04 0.08,-5.61 -0.2,-11.25 0.1,-16.85 z"
         fill="#916027"
         id="path105" />
      <path
         d="m 149.27,684.26 c 1.46,-0.12 2.94,-0.13 4.41,-0.15 1.34,3.37 2.7,6.74 4.1,10.09 1.48,-3.31 2.85,-6.67 4.19,-10.04 1.5,0.01 2.99,0.03 4.49,0.04 0.01,5.6 -0.01,11.19 0.02,16.79 -1.29,0.06 -2.58,0.14 -3.87,0.21 -0.01,-2.94 -0.02,-5.88 -0.07,-8.83 -1.17,2.69 -2.23,5.41 -3.28,8.15 -0.94,0.04 -1.88,0.09 -2.82,0.13 -1.09,-2.75 -2.16,-5.51 -3.28,-8.25 -0.08,2.91 -0.14,5.82 -0.21,8.74 -1.26,-0.01 -2.52,-0.01 -3.77,-0.01 0.05,-5.62 -0.23,-11.26 0.09,-16.87 z"
         fill="#98692f"
         id="path106" />
      <path
         d="m 197.42,684.45 c 3.91,-1.87 8.77,-0.65 11.18,2.97 2.92,4.26 1.33,10.61 -3.39,12.8 -3.97,1.91 -8.98,0.63 -11.32,-3.15 -2.69,-4.34 -1.18,-10.41 3.53,-12.62 z"
         fill="#a3793c"
         id="path107" />
      <path
         d="m 214.87,684.15 c 1.51,0.02 3.03,0.04 4.55,0.06 0.76,3.19 1.72,6.23 2.9,9.28 0.95,-2.94 1.79,-5.92 2.58,-8.91 1.35,0.03 2.7,0.06 4.05,0.08 0.66,3.06 1.54,5.89 2.73,8.78 0.99,-3.06 1.86,-6.15 2.72,-9.24 1.45,0 2.9,0 4.35,-0.01 -1.76,5.19 -3.23,10.5 -5.13,15.64 -0.1,1.87 -3.07,1.66 -4,0.83 -1.14,-2.95 -1.82,-6.06 -2.83,-9.06 -1.03,3.16 -1.94,6.36 -2.82,9.56 -1.24,-0.06 -2.49,-0.12 -3.73,-0.17 -1.75,-5.63 -3.66,-11.2 -5.37,-16.84 z"
         fill="#aa8344"
         id="path108" />
      <path
         d="m 244.67,684 c 4.19,-0.02 8.38,-0.01 12.57,0.03 -0.02,1.25 -0.04,2.49 -0.06,3.74 -2.79,0.01 -5.58,0.03 -8.37,0.04 0.05,0.93 0.11,1.87 0.16,2.8 1.77,0.01 3.53,0.01 5.3,0.02 0,1.22 0,2.45 -0.01,3.67 -1.78,0.01 -3.56,0.02 -5.35,0.03 -0.03,0.96 -0.06,1.92 -0.09,2.88 2.78,0.01 5.56,0.03 8.34,0.03 0.02,1.24 0.04,2.49 0.05,3.73 -4.18,0.15 -8.36,0.16 -12.54,0.11 -0.06,-5.69 -0.06,-11.39 0,-17.08 z"
         fill="#b08b4b"
         id="path109" />
      <path
         d="m 263.57,684.29 c 3.18,-0.27 6.62,-0.41 9.74,0.35 3.07,0.98 4.31,4.29 3.5,7.25 -0.56,1.25 -1.62,2.31 -2.45,3.38 0.94,1.97 1.88,3.94 2.83,5.91 -1.61,-0.07 -3.21,-0.15 -4.82,-0.24 -1.32,-2.43 -1.29,-5.26 -4.65,-5.52 -0.03,1.89 -0.05,3.78 -0.07,5.67 -1.4,-0.02 -2.81,-0.04 -4.21,-0.06 0.13,-5.58 -0.19,-11.18 0.13,-16.74 z"
         fill="#b69351"
         id="path110" />
      <path
         d="m 283.44,684.29 c 1.36,-0.13 2.74,-0.15 4.11,-0.19 0.02,5.64 0,11.28 0.03,16.93 -1.42,0.01 -2.84,0.03 -4.26,0.06 0.1,-5.6 -0.21,-11.22 0.12,-16.8 z"
         fill="#ba9957"
         id="path111" />
      <path
         d="m 293.82,684.03 c 1.27,0.08 2.54,0.17 3.8,0.28 2.16,3.06 4.06,6.29 6.19,9.37 0.04,-3.16 0.06,-6.32 0.09,-9.48 1.32,-0.02 2.64,-0.03 3.95,-0.04 0.03,5.72 0.05,11.44 -0.01,17.16 -1.21,-0.13 -2.41,-0.3 -3.6,-0.51 -2.4,-2.78 -4.09,-6.18 -6.27,-9.15 -0.1,3.15 -0.12,6.3 -0.14,9.45 -1.34,0.01 -2.68,0.02 -4.03,0.04 -0.04,-5.71 -0.05,-11.41 0.02,-17.12 z"
         fill="#be9f5c"
         id="path112" />
      <path
         d="m 320.07,684.04 c 3.77,-1.3 6.62,0.23 9.77,2.09 -0.67,0.96 -1.34,1.92 -2.02,2.88 -2.03,-0.58 -4.76,-2.13 -6.76,-1.04 -3.5,1.67 -3.42,7.23 0.12,8.81 1.97,0.98 3.3,0.07 5.03,-0.79 -2.37,-1.59 -3.18,-1.04 -2.63,-4.31 1.94,-0.27 3.97,-0.26 5.94,-0.29 0.02,2.41 0.18,4.88 -0.13,7.27 -3.85,3.87 -11.46,3.11 -14.14,-1.94 -2.64,-4.79 -0.44,-10.96 4.82,-12.68 z"
         fill="#c4a762"
         id="path113" />
      <path
         d="m 346.76,684.15 c 1.37,0.01 2.74,0.01 4.11,0.02 0.04,5.65 0.05,11.29 -0.01,16.94 -1.37,0.01 -2.75,0.02 -4.12,0.04 -0.05,-5.67 -0.08,-11.34 0.02,-17 z"
         fill="#cbb16b"
         id="path114" />
      <path
         d="m 357.29,684.32 c 1.18,-0.14 2.38,-0.24 3.57,-0.31 2.11,3.29 4.26,6.56 6.43,9.82 0,-3.22 0,-6.45 -0.01,-9.67 1.36,0.06 2.72,0.12 4.08,0.18 -0.08,5.66 -0.01,11.33 -0.09,16.99 -1.48,-0.32 -3.4,0.15 -4.3,-1.3 -2.04,-2.7 -3.69,-5.68 -5.69,-8.42 -0.04,3.18 -0.05,6.36 -0.07,9.54 -1.34,-0.02 -2.69,-0.05 -4.03,-0.07 0.06,-5.58 -0.26,-11.2 0.11,-16.76 z"
         fill="#cfb66f"
         id="path115" />
      <path
         d="m 377.63,684.01 c 1.14,0.02 2.29,0.06 3.43,0.11 2.35,2.9 4.12,6.18 6.44,9.1 0.14,-3 0.17,-6 0.16,-9 1.34,-0.01 2.68,-0.03 4.02,-0.05 0.02,5.66 0.01,11.32 0.02,16.98 -1.21,-0.03 -2.4,-0.1 -3.6,-0.21 -2.36,-2.74 -3.99,-6.07 -6.32,-8.87 -0.14,2.96 -0.17,5.93 -0.15,8.89 -1.35,0.08 -2.7,0.16 -4.05,0.25 -0.08,-5.73 -0.13,-11.47 0.05,-17.2 z"
         fill="#d6c077"
         id="path116" />
      <path
         d="m 403.21,684.24 c 4,-1.63 8.79,-0.17 10.99,3.59 2.44,4.16 1.04,9.86 -3.24,12.17 -4.06,2.25 -9.52,0.95 -11.86,-3.13 -2.64,-4.52 -0.82,-10.63 4.11,-12.63 z"
         fill="#dbc77d"
         id="path117" />
      <path
         d="m 420.82,684.11 c 1.4,0 2.81,0.01 4.22,0.05 1.33,3.31 2.25,6.82 3.38,10.21 1.37,-3.34 2.48,-6.76 3.52,-10.22 1.39,0.01 2.79,0.01 4.18,0.02 -1.7,5.65 -3.75,11.17 -5.49,16.8 -1.45,0.03 -2.91,0.05 -4.36,0.07 -1.78,-5.67 -3.83,-11.22 -5.45,-16.93 z"
         fill="#e1d084"
         id="path118" />
      <path
         d="m 445.36,684.3 c 1.36,-0.12 2.74,-0.1 4.11,-0.11 2.01,5.61 4.24,11.14 6.28,16.74 -1.27,0.11 -2.55,0.21 -3.82,0.32 -0.74,-0.97 -1.49,-1.93 -2.23,-2.9 -1.65,0.04 -3.29,0.08 -4.94,0.14 -2.11,2.62 -2.65,2.65 -6.03,2.79 2.03,-5.7 4.05,-11.52 6.63,-16.98 z"
         fill="#e6d78a"
         id="path119" />
      <path
         d="m 460.27,684.29 c 3.97,-0.34 8.01,-0.07 11.99,-0.11 0.02,1.22 0.04,2.44 0.06,3.65 -1.35,0.12 -2.7,0.24 -4.05,0.35 0.07,4.32 0.06,8.63 -0.03,12.95 -1.37,-0.03 -2.73,-0.05 -4.1,-0.07 0,-4.3 -0.02,-8.6 -0.05,-12.91 -1.4,-0.12 -2.8,-0.24 -4.2,-0.35 0.09,-1.18 0.22,-2.35 0.38,-3.51 z"
         fill="#ebde8f"
         id="path120" />
      <path
         d="m 478.74,684.11 c 1.36,0.03 2.71,0.06 4.07,0.08 0.06,5.61 0.05,11.22 0.01,16.84 -1.37,0.03 -2.75,0.07 -4.13,0.12 -0.12,-5.68 -0.18,-11.36 0.05,-17.04 z"
         fill="#efe494"
         id="path121" />
      <path
         d="m 494.26,684.29 c 4.2,-1.79 9.34,-0.08 11.38,4.06 2.07,4.14 0.53,9.55 -3.63,11.7 -4.1,2.18 -9.53,0.84 -11.82,-3.28 -2.5,-4.5 -0.78,-10.44 4.07,-12.48 z"
         fill="#f3ea99"
         id="path122" />
      <path
         d="m 512.93,684.04 c 1.24,0.09 2.47,0.2 3.7,0.32 2.1,3 3.98,6.14 6.16,9.08 0.09,-3.1 0.14,-6.21 0.22,-9.31 1.3,0 2.59,0.01 3.89,0.01 0.1,5.72 0.09,11.43 0.01,17.14 -1.22,-0.11 -2.44,-0.27 -3.65,-0.47 -2.38,-2.73 -4.04,-6.08 -6.2,-9 -0.19,3.07 -0.25,6.14 -0.29,9.22 -1.3,0.01 -2.59,0.02 -3.89,0.04 -0.15,-5.68 -0.19,-11.35 0.05,-17.03 z"
         fill="#f0e595"
         id="path123" />
      <path
         d="m 567.66,685.66 c -0.3,1.12 -0.6,2.25 -0.89,3.38 -3.07,-0.83 -5.26,-3.07 -7.93,-0.08 2.48,1.24 5.23,2.13 7.54,3.66 2.35,2.39 1.38,6.76 -1.72,8 -3.98,1.59 -7.19,0.04 -10.71,-1.71 0.32,-1.32 0.63,-2.65 0.94,-3.98 2.89,1.69 5.1,2.98 8.64,2.34 -1.15,-3.38 -5.24,-3.06 -7.61,-5.2 -1.9,-2.41 -1.1,-6.1 1.64,-7.48 3.63,-1.8 6.73,-0.47 10.1,1.07 z"
         fill="#e5d689"
         id="path124" />
      <path
         d="m 574.11,684.31 c 1.3,-0.12 2.61,-0.2 3.92,-0.25 0.06,2.37 0.12,4.74 0.19,7.1 1.99,0.02 3.99,0.03 5.99,0.04 0.03,-2.35 0.06,-4.7 0.09,-7.05 1.4,0.03 2.81,0.04 4.21,0.05 0.01,5.59 -0.01,11.17 0.04,16.75 -1.42,0.05 -2.84,0.09 -4.26,0.14 -0.03,-2.06 -0.05,-4.12 -0.08,-6.18 -2,0 -4,0.01 -6,0.02 -0.06,2.05 -0.12,4.1 -0.18,6.16 -1.35,0 -2.7,0.01 -4.05,0.02 -0.03,-5.58 -0.38,-11.24 0.13,-16.8 z"
         fill="#dfcd82"
         id="path125" />
      <path
         d="m 601.31,684.27 c 1.37,-0.09 2.74,-0.05 4.12,-0.04 1.98,5.68 4.31,11.22 6.31,16.89 -1.26,0.02 -2.52,-0.01 -3.78,-0.08 -0.86,-0.81 -1.62,-1.74 -2.4,-2.63 -1.65,0 -3.31,0.02 -4.97,0.06 -2.08,2.66 -2.41,2.68 -5.86,2.79 1.96,-5.71 4,-11.53 6.58,-16.99 z"
         fill="#dac67b"
         id="path126" />
      <path
         d="m 617.66,684.15 c 3.17,0.05 6.6,-0.29 9.69,0.45 4.09,1.11 5.22,7.14 1.96,9.7 -1.92,1.55 -5.15,1.34 -7.48,1.61 -0.03,1.72 -0.07,3.43 -0.1,5.14 -1.37,0.03 -2.73,0.08 -4.1,0.12 -0.07,-5.67 -0.11,-11.35 0.03,-17.02 z"
         fill="#d4be75"
         id="path127" />
      <path
         d="m 637.57,684.32 c 1.37,-0.15 2.75,-0.18 4.12,-0.24 0.03,5.66 0.01,11.33 0.01,17 -1.42,-0.04 -2.84,-0.06 -4.27,-0.1 0.15,-5.55 -0.18,-11.12 0.14,-16.66 z"
         fill="#d0b870"
         id="path128" />
      <path
         d="m 648.11,684.22 c 1.19,-0.06 2.38,-0.07 3.57,-0.02 2.12,3.07 4.05,6.28 6.26,9.3 0.13,-3.12 0.17,-6.24 0.19,-9.36 1.31,0.01 2.61,0.02 3.92,0.03 0.12,5.73 0.1,11.45 0.03,17.17 -1.27,-0.13 -2.52,-0.32 -3.76,-0.56 -2.35,-2.83 -4.06,-6.17 -6.22,-9.15 -0.14,3.16 -0.2,6.33 -0.23,9.49 -1.29,0 -2.58,0 -3.87,0.01 -0.02,-5.62 -0.34,-11.31 0.11,-16.91 z"
         fill="#ccb26b"
         id="path129" />
      <path
         d="m 674.09,684.09 c 3.81,-1.38 6.7,0.14 9.91,2.01 -0.71,1.03 -1.42,2.06 -2.13,3.09 -2.14,-0.78 -4.52,-2.4 -6.8,-1.16 -3.69,1.92 -3.15,7.97 0.97,9.01 1.79,0.59 2.94,-0.38 4.39,-1.21 -1.02,-0.5 -2.04,-1.01 -3.06,-1.51 0.23,-0.99 0.46,-1.98 0.7,-2.97 1.87,0.04 3.73,0.07 5.6,0.11 0.03,2.42 0.17,4.89 -0.11,7.29 -3.91,3.58 -10.85,3.1 -13.82,-1.49 -3.08,-4.68 -1.05,-11.35 4.35,-13.17 z"
         fill="#c6aa65"
         id="path130" />
      <path
         d="m 700.88,684.19 c 4.1,-0.03 8.2,-0.04 12.29,-0.04 0.01,1.26 0.02,2.51 0.03,3.77 -1.36,0.05 -2.72,0.09 -4.08,0.14 0.02,4.36 0.02,8.72 0,13.08 -1.4,-0.01 -2.79,-0.02 -4.19,-0.03 -0.07,-4.35 -0.08,-8.7 -0.04,-13.06 -1.35,-0.05 -2.7,-0.11 -4.05,-0.17 0.01,-1.23 0.03,-2.46 0.04,-3.69 z"
         fill="#be9e5b"
         id="path131" />
      <path
         d="m 723.35,684.38 c 3.68,-1.67 8.22,-0.67 10.69,2.57 3.1,3.96 2.08,10.24 -2.26,12.85 -3.98,2.4 -9.46,1.37 -12.02,-2.58 -2.85,-4.38 -1.27,-10.67 3.59,-12.84 z"
         fill="#b89654"
         id="path132" />
      <path
         d="m 741.82,684.13 c 1.53,0.06 3.07,0.11 4.6,0.16 1.23,3.36 2.58,6.65 4.1,9.89 1.37,-3.3 2.68,-6.62 3.97,-9.95 1.53,-0.03 3.06,-0.07 4.58,-0.11 0.04,5.68 0.04,11.35 0.01,17.03 -1.27,-0.02 -2.54,-0.03 -3.82,-0.05 -0.03,-2.67 -0.11,-5.35 -0.24,-8.02 -1.19,2.47 -2.25,5 -3.27,7.55 -0.86,0.01 -1.72,0.02 -2.57,0.03 -1.11,-2.65 -2.22,-5.3 -3.43,-7.91 -0.09,2.8 -0.14,5.6 -0.18,8.4 -1.25,-0.01 -2.51,-0.02 -3.76,-0.04 -0.03,-5.66 -0.03,-11.32 0.01,-16.98 z"
         fill="#b28d4d"
         id="path133" />
      <path
         d="m 770.26,684.29 c 3.71,-1.58 8.22,-0.47 10.63,2.82 3.06,4.14 1.74,10.65 -2.94,12.98 -4.07,2.15 -9.5,0.77 -11.76,-3.31 -2.49,-4.51 -0.78,-10.45 4.07,-12.49 z"
         fill="#ac8546"
         id="path134" />
      <path
         d="m 789.42,684.29 c 3.51,-0.12 8.92,-0.93 11.77,1.52 2.91,3.17 1.93,6.76 -1.01,9.46 0.97,1.96 1.93,3.92 2.89,5.88 -1.6,-0.04 -3.2,-0.08 -4.8,-0.13 -1.32,-2.44 -1.37,-5.3 -4.7,-5.65 -0.03,1.89 -0.05,3.77 -0.06,5.66 -1.4,0.02 -2.79,0.05 -4.19,0.08 0.09,-5.6 -0.21,-11.23 0.1,-16.82 z"
         fill="#a67d3f"
         id="path135" />
      <path
         d="m 809.3,684.29 c 3.51,-0.11 9.02,-0.95 11.82,1.59 2.83,3.18 1.82,6.67 -1.05,9.38 0.95,1.96 1.91,3.92 2.86,5.88 -1.59,-0.03 -3.19,-0.05 -4.78,-0.09 -1.31,-2.47 -1.38,-5.26 -4.7,-5.71 -0.04,1.87 -0.05,3.74 -0.06,5.61 -1.39,0.08 -2.78,0.16 -4.18,0.24 0.07,-5.63 -0.21,-11.29 0.09,-16.9 z"
         fill="#a07539"
         id="path136" />
      <path
         d="m 834.25,684.28 c 3.72,-1.57 8.23,-0.45 10.62,2.85 2.87,3.92 1.9,9.91 -2.22,12.55 -3.89,2.51 -9.42,1.61 -12.07,-2.25 -3.04,-4.47 -1.45,-11.02 3.67,-13.15 z"
         fill="#9a6c32"
         id="path137" />
      <path
         d="m 851.41,684.26 c 1.47,-0.1 2.94,-0.1 4.41,-0.12 0.78,3.19 1.72,6.28 2.97,9.31 0.94,-2.97 1.79,-5.97 2.69,-8.96 1.28,0.04 2.56,0.08 3.84,0.11 0.73,3.01 1.61,5.95 2.85,8.79 0.93,-3.07 1.82,-6.16 2.7,-9.25 1.45,0.01 2.9,0.02 4.34,0.03 -1.77,5.63 -3.66,11.22 -5.43,16.85 -1.25,0.04 -2.5,0.08 -3.75,0.13 -0.87,-3.24 -1.77,-6.46 -2.76,-9.66 -1.02,3.1 -1.91,6.24 -2.74,9.4 -1.21,0.13 -2.42,0.25 -3.64,0.38 -1.88,-5.64 -3.85,-11.29 -5.48,-17.01 z"
         fill="#93632a"
         id="path138" />
      <path
         d="m 172.69,684.19 c 3.32,0.05 7.12,-0.45 10.3,0.61 3.7,1.42 4.51,7.17 1.36,9.54 -1.98,1.54 -5.05,1.3 -7.44,1.54 -0.02,1.75 -0.05,3.5 -0.07,5.25 -1.38,0 -2.75,0 -4.13,0.01 -0.04,-5.65 -0.02,-11.3 -0.02,-16.95 z"
         fill="#9d7035"
         id="path139" />
      <path
         d="m 176.88,687.67 c 2.25,0.48 4.76,-0.43 5.55,2.34 -0.53,2.65 -3.52,1.76 -5.53,2.3 -0.01,-1.55 -0.01,-3.09 -0.02,-4.64 z"
         fill="#ffffff"
         id="path140" />
      <path
         d="m 199.15,688.13 c 2.71,-1.54 5.88,0.05 6.49,3.03 0.79,3.36 -1.99,6.95 -5.57,5.84 -3.79,-1.32 -4.31,-6.8 -0.92,-8.87 z"
         fill="#ffffff"
         id="path141" />
      <path
         d="m 268.93,687.82 c 1.77,-0.11 3.89,0 4.1,2.19 -0.07,2.79 -3.6,1.91 -5.47,1.95 0.33,-1.35 -0.75,-4.23 1.37,-4.14 z"
         fill="#ffffff"
         id="path142" />
      <path
         d="m 404.28,688.27 c 2.35,-1.51 5.38,-0.6 6.42,1.99 1.5,3.19 -0.99,7.53 -4.71,6.88 -4.14,-0.86 -5.07,-6.51 -1.71,-8.87 z"
         fill="#ffffff"
         id="path143" />
      <path
         d="m 495.33,688.33 c 2.29,-1.57 5.39,-0.72 6.47,1.83 1.56,3.32 -0.92,7.71 -4.8,6.95 -3.98,-0.95 -4.87,-6.38 -1.67,-8.78 z"
         fill="#ffffff"
         id="path144" />
      <path
         d="m 621.79,687.63 c 1.56,0.23 3.27,0.26 4.75,0.82 0.7,1.03 0.71,2.08 0.04,3.14 -1.56,0.36 -3.18,0.53 -4.77,0.74 -0.01,-1.56 -0.01,-3.13 -0.02,-4.7 z"
         fill="#ffffff"
         id="path145" />
      <path
         d="m 724.4,688.46 c 2.63,-1.98 6.14,-0.63 6.96,2.48 0.88,3.34 -1.7,7.02 -5.31,6.12 -3.75,-1.05 -4.57,-6.2 -1.65,-8.6 z"
         fill="#ffffff"
         id="path146" />
      <path
         d="m 771.32,688.32 c 2.28,-1.57 5.39,-0.69 6.45,1.87 1.53,3.31 -0.92,7.64 -4.77,6.92 -4.04,-0.92 -4.92,-6.42 -1.68,-8.79 z"
         fill="#ffffff"
         id="path147" />
      <path
         d="m 793.58,688.05 c 1.85,-0.37 5.14,-0.66 5.27,1.96 0.03,2.71 -3.62,1.92 -5.4,2.05 -0.02,-1.34 0.03,-2.68 0.13,-4.01 z"
         fill="#ffffff"
         id="path148" />
      <path
         d="m 813.31,687.77 c 1.79,0.17 3.61,-0.15 5.09,0.96 0.34,0.94 0.35,1.8 0.01,2.56 -1.28,1 -3.41,0.73 -4.97,0.83 -0.06,-1.45 -0.1,-2.9 -0.13,-4.35 z"
         fill="#ffffff"
         id="path149" />
      <path
         d="m 835.31,688.31 c 2.32,-1.56 5.37,-0.68 6.46,1.89 1.46,3.32 -0.91,7.61 -4.78,6.93 -4.05,-0.94 -4.93,-6.44 -1.68,-8.82 z"
         fill="#ffffff"
         id="path150" />
      <path
         d="m 447.48,689.68 c 0.62,1.78 1.18,3.57 1.71,5.37 -1.36,-0.02 -2.73,-0.05 -4.09,-0.08 0.62,-1.85 1.37,-3.62 2.38,-5.29 z"
         fill="#fbf8eb"
         id="path151" />
      <path
         d="m 603.41,689.71 c 0.62,1.77 1.18,3.55 1.73,5.35 -1.38,-0.02 -2.75,-0.03 -4.13,-0.05 0.6,-1.87 1.32,-3.65 2.4,-5.3 z"
         fill="#f9f5e8"
         id="path152" />
      <path
         d="m 536.87,698.21 c 0.71,1.94 -1.39,4.2 -2.31,5.84 -0.58,-1.99 -1.15,-3.97 -1.62,-5.98 1.77,-0.86 2.35,-1.5 3.93,0.14 z"
         fill="#f1e7ac"
         id="path153" />
    </g>
  </g>
  <g
     id="g174">
    <g
       id="layer5"
       style="display:inline">
      <path
         d="m 46.98,534.91 c 7.91,-0.06 15.83,0.01 23.75,0 0,4.8 -0.01,9.61 0.01,14.41 -8.2,0.07 -16.39,0.01 -24.59,0.05 1.2,0.93 2.39,1.87 3.59,2.8 -0.36,21.32 -0.44,42.67 0,63.99 7,0.02 14,0.03 21,0.03 -0.02,4.75 -0.03,9.5 0.03,14.25 -7.26,0.14 -14.51,0.02 -21.77,0.12 -2.88,-0.07 -5.51,0.15 -7.98,-1.61 -2.66,-1.82 -3.82,-4.76 -3.78,-7.91 -0.05,-24.99 0.04,-50.05 -0.04,-75.04 0.04,-2.62 -0.03,-4.99 1.56,-7.23 1.89,-2.82 4.92,-3.9 8.22,-3.86 z"
         fill="#926129"
         id="path64" />
      <path
         d="m 80.98,535.15 c 4.6,-0.53 9.39,-0.1 14.02,-0.08 4.13,0.06 8.41,-0.23 12.45,0.45 -4.09,0.48 -8.18,0.49 -12.29,0.68 -0.83,4.47 -0.24,8.74 -0.03,13.24 -4.25,-0.01 -8.51,-0.01 -12.76,0.03 1.14,0.95 2.29,1.89 3.43,2.83 0.05,21.31 0,42.62 0.02,63.92 4.92,0.02 9.84,0.03 14.75,0.02 l -0.03,0.54 c -1.78,0.26 -3.57,0.45 -5.36,0.65 -0.65,4.39 -0.63,8.75 -0.32,13.17 -4.62,-0.1 -9.28,0.22 -13.89,-0.13 -3.41,-0.33 -6.41,-2.92 -7.28,-6.23 -0.41,-1.68 -0.38,-3.52 -0.42,-5.24 0.09,-24.96 -0.02,-50.07 0.06,-75.03 -0.07,-4.32 3.34,-8.33 7.65,-8.82 z"
         fill="#996b31"
         id="path65" />
      <path
         d="m 116.57,534.62 c 7.5,0.07 15,0.06 22.51,0.09 -0.47,4.8 -0.77,9.58 -0.37,14.4 -3.68,0 -7.36,0 -11.05,0 1.21,0.96 2.42,1.91 3.63,2.86 0.01,7.76 0.03,15.52 -0.01,23.28 4.89,0.1 9.79,0.12 14.68,0.04 l -0.16,0.48 c -2.49,0.32 -4.98,0.63 -7.45,1.03 0.66,6.28 0.23,12.51 0.31,18.8 -0.61,0.6 -1.22,1.21 -1.83,1.82 -0.67,-2.57 -1.34,-5.14 -1.99,-7.71 -2.35,-0.01 -4.7,0 -7.05,0 1.18,1.02 2.35,2.04 3.53,3.05 -0.05,12.53 0,25.06 -0.03,37.58 -4.19,0.02 -8.39,0.03 -12.58,0.01 -0.1,-30.91 0.14,-61.97 -0.12,-92.85 -0.66,-0.97 -1.33,-1.93 -2.02,-2.88 z"
         fill="#a3793c"
         id="path66" />
      <path
         d="m 139.08,534.71 c 4.25,0.1 8.68,-0.33 12.87,0.39 4.07,1 6.57,4.78 6.52,8.89 0.13,11.33 -0.03,22.68 0.08,34.01 -0.04,3.38 -0.01,6.45 -2.55,9.01 -2.3,2.44 -5.09,2.55 -8.21,2.91 3.59,13.47 7.15,26.95 10.71,40.42 -4.29,0.01 -8.58,0.01 -12.87,0.05 -3.06,-10.96 -5.88,-21.98 -8.8,-32.97 0.61,-0.61 1.22,-1.22 1.83,-1.82 -0.08,-6.29 0.35,-12.52 -0.31,-18.8 2.47,-0.4 4.96,-0.71 7.45,-1.03 l 0.16,-0.48 c 0.26,-8.7 0.08,-17.44 0.07,-26.15 -2.44,-0.01 -4.88,-0.03 -7.32,-0.03 -0.4,-4.82 -0.1,-9.6 0.37,-14.4 z"
         fill="#a88042"
         id="path67" />
      <path
         d="m 161.5,534.88 c 11.88,0.04 23.76,0.06 35.64,0.22 0.01,4.77 0.01,9.54 0,14.31 -8.16,0.06 -16.32,-0.03 -24.48,0.08 1.14,0.92 2.3,1.84 3.45,2.75 0.12,7.76 0.05,15.53 0.04,23.29 4.9,0.05 9.8,0.05 14.7,0.03 0.03,4.84 0.03,9.69 0.01,14.53 -6.09,0.02 -12.19,0.02 -18.28,0.01 1.2,0.95 2.39,1.89 3.59,2.84 0,7.76 0,15.51 0,23.27 6.99,0.04 13.97,0.02 20.95,0.04 0.05,4.78 0.06,9.56 -0.05,14.34 -11.19,-0.06 -22.38,0.12 -33.57,-0.05 0.08,-28.18 -0.01,-56.36 0.05,-84.54 -0.1,-4.15 0.82,-7.65 -2.05,-11.12 z"
         fill="#ae8849"
         id="path68" />
      <path
         d="m 199.08,534.71 c 4.8,0.03 9.6,0.01 14.4,0.02 2.75,21.25 5.06,42.57 7.96,63.8 0.97,-6.14 1.63,-12.33 2.38,-18.5 0.66,-0.62 1.32,-1.25 1.98,-1.88 -0.52,10.85 -0.21,21.74 -0.31,32.6 -0.09,6.66 0.47,13.05 -0.2,19.61 -4.21,-0.02 -8.43,-0.01 -12.64,0.02 -3.43,-26.71 -6.59,-53.46 -9.93,-80.18 -0.57,-4.29 -0.83,-8.75 -1.84,-12.95 -0.59,-0.85 -1.19,-1.7 -1.8,-2.54 z"
         fill="#b69452"
         id="path69" />
      <path
         d="m 229.3,534.84 c 4.3,-0.14 8.6,-0.15 12.9,-0.11 2.13,16.07 3.97,32.18 5.99,48.26 0.67,5.03 0.99,10 2.09,14.97 1.46,-9.7 2.48,-19.47 3.69,-29.21 1.34,-0.25 2.68,-0.52 4.02,-0.78 0.56,2.98 0.58,5.91 0.43,8.93 -0.02,14.32 0.18,28.76 0.03,43.07 -0.1,1.75 0.46,3.08 1.24,4.61 -0.21,1.91 -0.39,3.83 -0.6,5.74 -5.82,-0.19 -11.94,0.52 -17.69,-0.29 -2.18,-14.67 -3.36,-29.52 -5.76,-44.15 -1.7,14.84 -3.52,29.67 -5.37,44.49 -1.66,0 -3.32,-0.01 -4.98,-0.01 0.67,-6.56 0.11,-12.95 0.2,-19.61 0.1,-10.86 -0.21,-21.75 0.31,-32.6 -0.66,0.63 -1.32,1.26 -1.98,1.88 1.78,-15.07 3.76,-30.11 5.48,-45.19 z"
         fill="#bc9c59"
         id="path70" />
      <path
         d="m 258.16,534.76 c 4.2,-0.06 8.39,-0.05 12.59,0.03 -3.73,29.92 -7.2,59.89 -11.06,89.79 -0.78,-1.53 -1.34,-2.86 -1.24,-4.61 0.15,-14.31 -0.05,-28.75 -0.03,-43.07 0.15,-3.02 0.13,-5.95 -0.43,-8.93 -1.34,0.26 -2.68,0.53 -4.02,0.78 1.39,-11.33 2.77,-22.66 4.19,-33.99 z"
         fill="#c1a35f"
         id="path71" />
      <path
         d="m 275.01,534.89 c 11.84,-0.06 23.67,0.25 35.51,0.19 0.05,4.78 0.05,9.56 0.01,14.34 -8.18,0.01 -16.35,0.03 -24.53,0 1.19,0.98 2.38,1.97 3.58,2.95 -0.01,7.73 -0.02,15.45 0,23.18 4.93,0.02 9.86,-0.03 14.79,0.12 -0.02,4.81 -0.01,9.62 -0.03,14.42 -6.11,0.04 -12.22,-0.01 -18.32,0.03 1.15,0.9 2.31,1.79 3.47,2.68 0.18,7.8 0.01,15.61 0.1,23.42 6.96,0.02 13.92,0.07 20.87,-0.01 0.13,4.79 0.11,9.57 0.07,14.35 -11.19,0.01 -22.39,0.1 -33.59,0.01 0.01,-27.86 -0.01,-55.71 0.01,-83.57 -0.16,-4.45 0.93,-8.28 -1.94,-12.11 z"
         fill="#c6aa65"
         id="path72" />
      <path
         d="m 313.89,534.61 c 7.7,0.09 15.4,0.07 23.09,0.1 0.02,4.8 0.03,9.6 0.03,14.4 -4.06,-0.01 -8.13,0 -12.2,0 1.18,0.97 2.37,1.93 3.55,2.89 0.03,7.72 0.08,15.44 -0.05,23.15 4.95,0.31 9.9,0.07 14.84,0.32 -1.99,0.49 -3.99,0.76 -6.02,1.05 -0.3,7.41 -0.27,14.81 0.29,22.2 -0.02,2.4 0.61,4.41 -1.5,6.13 -1.36,-5.03 -2.73,-10.07 -3.99,-15.13 -2.27,0 -4.53,0 -6.8,-0.01 1.08,1.06 2.17,2.11 3.26,3.16 -0.02,12.49 0.02,24.98 -0.02,37.46 -4.2,0.04 -8.39,0.04 -12.58,0.01 -0.03,-28.11 -0.03,-56.23 0,-84.34 -0.12,-4.18 0.81,-7.8 -1.9,-11.39 z"
         fill="#ceb56e"
         id="path73" />
      <path
         d="m 336.98,534.71 c 3.95,0.06 8.08,-0.3 11.98,0.38 4.13,0.95 6.6,4.78 6.6,8.89 0.12,11.33 -0.04,22.68 0.07,34.02 -0.02,3.4 -0.02,6.47 -2.59,9.05 -2.29,2.38 -5.04,2.45 -8.1,2.92 3.45,13.48 7.15,26.89 10.6,40.36 -4.27,0.03 -8.53,0.03 -12.8,0.06 -2.44,-8.46 -4.63,-17.01 -6.82,-25.54 2.11,-1.72 1.48,-3.73 1.5,-6.13 -0.56,-7.39 -0.59,-14.79 -0.29,-22.2 2.03,-0.29 4.03,-0.56 6.02,-1.05 -0.06,-8.77 0,-17.55 -0.07,-26.33 -2.02,-0.01 -4.04,-0.03 -6.07,-0.03 0,-4.8 -0.01,-9.6 -0.03,-14.4 z"
         fill="#d3bc74"
         id="path74" />
      <path
         d="m 358,534.92 c 4.84,-0.01 9.66,-0.12 14.49,0.22 3.41,9.69 6.87,19.4 10.59,28.97 3.87,-9.59 6.97,-19.48 10.81,-29.09 4.4,0.08 8.79,0.09 13.19,0.1 -5.37,14.93 -10.84,29.83 -16.31,44.72 -0.53,1.64 -1.04,3.07 -0.34,4.76 5.48,15.33 11.26,30.58 16.62,45.96 -4.44,0.06 -8.89,0.06 -13.34,-0.08 -3.45,-9.59 -6.91,-19.17 -10.43,-28.73 -1.23,2.41 -2.33,4.85 -3.14,7.43 -2.54,7.15 -5.21,14.24 -7.77,21.38 -4.46,0.09 -8.91,0.11 -13.37,0.08 5.69,-15.95 11.55,-31.84 17.4,-47.72 -4.77,-13.57 -9.94,-27 -14.76,-40.55 -0.9,-2.64 -2.19,-5.08 -3.64,-7.45 z"
         fill="#dbc87d"
         id="path75" />
      <path
         d="m 444.59,535.13 c 4.4,1.1 8.79,0.94 13.28,0.97 0.15,4.41 0.21,8.82 0.17,13.23 -5.31,-0.04 -10.62,0.13 -15.93,-0.07 1.03,1.14 2.43,2.25 3.04,3.67 0.61,3.57 -0.56,7.96 0.63,11.3 3.54,4.97 7.75,9.5 11.49,14.34 -0.65,6.33 0.47,12.19 -1.11,18.25 -7.02,-8.34 -13.78,-16.89 -20.78,-25.24 -1.35,-1.75 -2.78,-3.15 -2.63,-5.56 -0.08,-6.34 0.08,-12.68 -0.04,-19.02 0.04,-3.63 -0.09,-6.85 2.75,-9.53 2.63,-2.62 5.68,-2.43 9.13,-2.34 z"
         fill="#e8da8c"
         id="path76" />
      <path
         d="m 444.59,535.13 c 6.47,-0.02 12.98,-0.4 19.44,-0.08 4.53,0.11 8.08,3.61 8.43,8.09 0.34,6.86 0.02,13.76 0.13,20.62 -4.16,0.08 -8.31,0.1 -12.47,0.06 -0.03,-4.78 0.15,-9.68 -0.27,-14.42 l -1.81,-0.07 c 0.04,-4.41 -0.02,-8.82 -0.17,-13.23 -4.49,-0.03 -8.88,0.13 -13.28,-0.97 z"
         fill="#ede192"
         id="path77" />
      <path
         d="m 484.98,535.12 c 4.95,-0.51 10.05,-0.06 15.02,-0.08 3.89,0.28 9.2,-0.79 12.61,1.33 3.05,1.96 4.32,5.06 4.25,8.61 0.05,24.65 -0.05,49.38 0.04,74.02 -0.03,3.47 -0.04,6.6 -2.76,9.13 -3.09,3.04 -7.18,2.39 -11.14,2.48 -6,-0.19 -12.04,0.25 -18.03,-0.13 -3.68,-0.23 -6.93,-3.08 -7.64,-6.69 -0.33,-1.89 -0.33,-3.88 -0.34,-5.79 0.13,-24.63 -0.05,-49.42 0.08,-74.03 -0.06,-4.46 3.46,-8.46 7.91,-8.85 z"
         fill="#f2e898"
         id="path78" />
      <path
         d="m 520.98,535.01 c 4.68,-0.11 9.36,-0.15 14.04,0.04 0.23,27.02 0.01,54.06 0.1,81.08 6.96,0.16 13.92,0 20.87,0.03 0.11,4.79 0.1,9.59 0.07,14.38 -11.17,0.19 -22.37,0.07 -33.55,-0.01 -0.09,-27.51 -0.02,-55.02 -0.03,-82.53 -0.09,-4.62 0.71,-8.72 -1.5,-12.99 z"
         fill="#efe394"
         id="path79" />
      <path
         d="m 556.15,534.9 c 4.83,-0.02 9.65,-0.07 14.48,0.14 -0.09,27.11 0,54.22 -0.05,81.33 1.74,0.39 3.47,0.78 5.21,1.16 0.74,4.46 0.89,8.55 0.36,13.03 -3.7,-0.01 -7.53,0.32 -11.19,-0.22 -3.5,-0.65 -6.35,-3.85 -6.7,-7.38 -0.35,-3.28 -0.17,-6.66 -0.18,-9.96 0.03,-22 -0.01,-44 0.02,-66 -0.08,-4.4 0.76,-8.26 -1.95,-12.1 z"
         fill="#e8d98b"
         id="path80" />
      <path
         d="m 585.33,535.06 c 4.2,-0.3 8.35,-0.19 12.55,-0.11 0.03,26.02 0,52.03 0.02,78.05 -0.02,3.29 0.17,6.65 -0.19,9.92 -0.43,3.83 -3.84,7.13 -7.67,7.46 -4.61,0.39 -9.27,0.05 -13.89,0.18 0.53,-4.48 0.38,-8.57 -0.36,-13.03 -1.74,-0.38 -3.47,-0.77 -5.21,-1.16 4.9,-0.16 9.79,-0.11 14.68,-0.16 0.12,-27.04 -0.04,-54.11 0.07,-81.15 z"
         fill="#e2d185"
         id="path81" />
      <path
         d="m 601.14,534.78 c 13.26,-0.07 26.53,-0.08 39.8,-0.02 0.01,4.83 0.01,9.66 0,14.49 -5.69,0.08 -11.38,0.04 -17.06,0.01 1.12,0.94 2.25,1.88 3.38,2.82 0.09,26.11 0.04,52.22 0.02,78.33 -4.19,0.05 -8.37,0.05 -12.56,-0.02 -0.05,-27.03 0.01,-54.07 -0.03,-81.1 -4.51,-0.01 -9.03,-0.02 -13.55,-0.06 -0.01,-4.82 -0.01,-9.63 0,-14.45 z"
         fill="#dbc87d"
         id="path82" />
      <path
         d="m 644.36,534.77 c 4.79,-0.14 9.59,-0.04 14.37,0.06 0,31.8 -0.05,63.6 0.03,95.41 -4.22,0.16 -8.41,0.17 -12.63,0.05 0.02,-27.43 0.01,-54.86 0.01,-82.29 -0.15,-4.77 0.92,-8.95 -1.78,-13.23 z"
         fill="#d4be75"
         id="path83" />
      <path
         d="m 680,534.9 c 6.02,0.34 12.51,-0.71 18.37,0.75 -4.73,0.32 -9.46,0.32 -14.19,0.52 -0.33,4.46 -0.21,8.81 -0.15,13.27 -3.61,0.02 -7.22,-0.02 -10.83,0 1.16,0.98 2.33,1.94 3.5,2.91 0.05,21.28 -0.02,42.57 0.03,63.85 4.94,0.03 9.84,-0.14 14.77,0.2 -2.44,0.45 -4.9,0.78 -7.37,1.05 -0.19,4.38 -0.2,8.76 -0.1,13.14 -4.32,-0.06 -8.78,0.35 -13.07,-0.27 -4.36,-0.97 -6.91,-4.93 -6.75,-9.29 -0.03,-25.27 0.01,-50.73 -0.02,-76.05 -0.02,-2.75 0.53,-5.24 2.56,-7.23 3.34,-3.68 8.79,-2.68 13.25,-2.85 z"
         fill="#d0b871"
         id="path84" />
      <path
         d="m 707.49,534.91 c 5.87,-0.02 11.74,-0.03 17.61,0 3.05,13.43 6.06,26.88 9.06,40.32 -2.65,0.49 -4.42,1.76 -5.72,4.15 -1.31,5.98 0.37,13.37 -1.83,19.21 -1.57,-6.08 -2.58,-12.28 -4.37,-18.29 -0.38,16.76 0.05,33.55 -0.22,50.32 -4.17,-0.01 -8.34,-0.02 -12.52,-0.04 -0.08,-30.83 0.15,-61.79 -0.11,-92.61 -0.62,-1.03 -1.25,-2.05 -1.9,-3.06 z"
         fill="#c6aa65"
         id="path85" />
      <path
         d="m 736.82,535.01 c 4.15,-0.1 8.31,-0.12 12.47,-0.08 0.1,31.82 -0.08,63.64 0.09,95.46 -5.24,0.25 -10.46,0.13 -15.7,0.08 -2.34,-10.63 -4.78,-21.24 -7.07,-31.88 2.2,-5.84 0.52,-13.23 1.83,-19.21 1.3,-2.39 3.07,-3.66 5.72,-4.15 0.8,3.68 1.58,7.36 2.49,11.01 0.35,-17.07 0.04,-34.16 0.17,-51.23 z"
         fill="#c1a35f"
         id="path86" />
      <path
         d="m 760.99,535.22 c 4.26,-0.58 8.71,-0.24 13.01,-0.23 4.97,0.14 9.66,-0.39 14.39,0.62 -6.08,0.74 -12.13,0.1 -18.21,0.57 -0.32,4.42 -0.21,8.75 -0.15,13.18 -2.4,0 -4.81,0 -7.22,0 1.14,0.93 2.29,1.85 3.44,2.77 0.14,3.82 -0.22,7.73 0.23,11.53 0.87,1.68 2.24,3.16 3.42,4.64 -1.2,1.13 -3.2,2.01 -3.24,3.88 -0.18,4.03 0.33,8.09 0.23,12.13 -3.52,-4.22 -6.95,-8.53 -10.48,-12.75 -1.36,-1.76 -2.83,-3.11 -2.64,-5.54 0.02,-7.34 -0.06,-14.7 0.03,-22.05 -0.07,-4.23 2.94,-8.13 7.19,-8.75 z"
         fill="#bd9d5a"
         id="path87" />
      <path
         d="m 818.85,534.69 c 11.86,0.1 23.72,-0.01 35.58,0.04 0.03,4.82 0.03,9.65 0,14.47 -8.21,0.02 -16.43,-0.02 -24.64,0 1.2,0.95 2.41,1.89 3.61,2.83 0.09,7.8 -0.08,15.6 0.1,23.39 4.86,-0.05 9.72,-0.05 14.58,-0.05 0.1,4.82 0.09,9.65 0.05,14.47 -6.08,0.04 -12.16,-0.04 -18.24,0.03 1.18,0.98 2.36,1.95 3.54,2.92 -0.02,12.52 0.01,25.04 -0.02,37.56 -4.19,0.01 -8.39,0.01 -12.58,-0.01 -0.01,-28.11 -0.02,-56.23 0,-84.34 -0.18,-4.22 0.96,-7.79 -1.98,-11.31 z"
         fill="#ae8849"
         id="path88" />
      <path
         d="m 875.72,535.14 c 11.2,-0.02 22.39,-0.04 33.59,-0.05 -0.03,3.97 0.1,7.95 0.02,11.92 -0.05,4.34 -2.09,8.83 -3.26,13.02 -5.64,18.75 -11.63,37.42 -17.1,56.22 6.79,-0.04 13.57,-0.06 20.36,-0.02 -0.02,4.76 -0.03,9.51 0.06,14.27 -11.23,0.19 -22.52,0.18 -33.75,-0.04 0.11,-3.82 0.02,-7.64 0.06,-11.46 -0.02,-4.1 1.82,-8.34 2.96,-12.29 5.79,-19.09 11.74,-38.13 17.43,-57.25 -6.79,-0.04 -13.58,-0.01 -20.37,-0.04 -0.01,-4.76 -0.01,-9.52 0,-14.28 z"
         fill="#a07539"
         id="path89" />
      <path
         d="m 932.55,534.88 c 11.89,0.1 23.78,0.01 35.67,0.05 0.02,4.84 0.02,9.68 0.01,14.52 -8.19,0.04 -16.39,-0.05 -24.58,0.03 1.17,0.92 2.35,1.83 3.53,2.74 0.08,7.78 0.01,15.56 0.04,23.34 4.93,-0.01 9.86,-0.01 14.79,0 0,4.84 0,9.69 0,14.54 -6.15,0.02 -12.29,0 -18.43,0 1.21,0.93 2.42,1.86 3.64,2.79 0,7.78 -0.02,15.55 0.01,23.33 7,0.01 14,-0.05 21.01,0.01 0.01,4.81 0.04,9.62 -0.09,14.43 -11.19,-0.12 -22.38,0.03 -33.56,-0.12 0.06,-28.18 -0.01,-56.36 0.03,-84.54 -0.13,-4.16 0.9,-7.7 -2.07,-11.12 z"
         fill="#95652c"
         id="path90" />
      <path
         d="m 95.16,536.2 c 4.11,-0.19 8.2,-0.2 12.29,-0.68 1.68,1.05 3.24,2.02 4.29,3.77 1.44,2.29 1.35,5.11 1.42,7.71 -0.09,24.64 0.02,49.39 -0.05,74.02 0.11,4.17 -2.07,7.79 -6.1,9.13 -3.9,0.86 -8.16,0.36 -12.15,0.45 -0.31,-4.42 -0.33,-8.78 0.32,-13.17 1.79,-0.2 3.58,-0.39 5.36,-0.65 l 0.03,-0.54 c 0.1,-22.26 0.02,-44.53 0.04,-66.79 -1.83,0 -3.65,0 -5.48,-0.01 -0.21,-4.5 -0.8,-8.77 0.03,-13.24 z"
         fill="#9f7337"
         id="path91" />
      <path
         d="m 684.18,536.17 c 4.73,-0.2 9.46,-0.2 14.19,-0.52 4.34,1.82 5.85,5.88 5.72,10.34 0.02,24.31 -0.03,48.71 0.02,73.01 -0.05,1.84 -0.09,3.79 -0.59,5.57 -1,3.22 -4.11,5.7 -7.49,5.92 -3.98,0.3 -8.01,0.04 -12,0.1 -0.1,-4.38 -0.09,-8.76 0.1,-13.14 2.47,-0.27 4.93,-0.6 7.37,-1.05 0.01,-22.32 0.01,-44.64 0,-66.95 -2.49,-0.01 -4.98,-0.02 -7.47,-0.01 -0.06,-4.46 -0.18,-8.81 0.15,-13.27 z"
         fill="#cbb16a"
         id="path92" />
      <path
         d="m 770.18,536.18 c 6.08,-0.47 12.13,0.17 18.21,-0.57 2.81,1.78 4.87,4.07 5.11,7.53 0.31,6.88 0.01,13.8 0.11,20.68 -4.16,0.02 -8.32,0.01 -12.48,0 0.02,-4.82 0.04,-9.64 -0.08,-14.46 -3.67,-0.01 -7.34,-0.01 -11.02,0 -0.06,-4.43 -0.17,-8.76 0.15,-13.18 z"
         fill="#b89654"
         id="path93" />
      <path
         d="m 82.37,549.47 c 4.25,-0.04 8.51,-0.04 12.76,-0.03 1.83,0.01 3.65,0.01 5.48,0.01 -0.02,22.26 0.06,44.53 -0.04,66.79 -4.91,0.01 -9.83,0 -14.75,-0.02 -0.02,-21.3 0.03,-42.61 -0.02,-63.92 -1.14,-0.94 -2.29,-1.88 -3.43,-2.83 z"
         fill="#ffffff"
         id="path94" />
      <path
         d="m 127.66,549.11 c 3.69,0 7.37,0 11.05,0 2.44,0 4.88,0.02 7.32,0.03 0.01,8.71 0.19,17.45 -0.07,26.15 -4.89,0.08 -9.79,0.06 -14.68,-0.04 0.04,-7.76 0.02,-15.52 0.01,-23.28 -1.21,-0.95 -2.42,-1.9 -3.63,-2.86 z"
         fill="#ffffff"
         id="path95" />
      <path
         d="m 324.81,549.11 c 4.07,0 8.14,-0.01 12.2,0 2.03,0 4.05,0.02 6.07,0.03 0.07,8.78 0.01,17.56 0.07,26.33 -4.94,-0.25 -9.89,-0.01 -14.84,-0.32 0.13,-7.71 0.08,-15.43 0.05,-23.15 -1.18,-0.96 -2.37,-1.92 -3.55,-2.89 z"
         fill="#ffffff"
         id="path96" />
      <path
         d="m 673.2,549.44 c 3.61,-0.02 7.22,0.02 10.83,0 2.49,-0.01 4.98,0 7.47,0.01 0.01,22.31 0.01,44.63 0,66.95 -4.93,-0.34 -9.83,-0.17 -14.77,-0.2 -0.05,-21.28 0.02,-42.57 -0.03,-63.85 -1.17,-0.97 -2.34,-1.93 -3.5,-2.91 z"
         fill="#ffffff"
         id="path97" />
      <path
         d="m 487.48,549.49 c 5.63,-0.05 11.25,-0.14 16.88,0.03 0.04,22.22 0.1,44.45 -0.04,66.68 -4.89,0.08 -9.77,0.07 -14.66,-0.03 -0.18,-20.4 -0.03,-40.82 -0.07,-61.21 0.1,-2.2 -1.12,-3.64 -2.11,-5.47 z"
         fill="#ffffff"
         id="path98" />
      <path
         d="m 769.9,568.3 c 7.49,9.1 14.93,18.26 22.42,27.39 2.03,2.03 1.14,5.65 1.32,8.31 -0.14,6 0.15,12.02 -0.09,18.02 -0.14,4.56 -3.91,8.46 -8.52,8.52 -6,0.24 -12.02,-0.08 -18.03,0.09 0.19,-4.88 0.03,-9.55 -0.53,-14.4 4.89,0.02 9.77,0.01 14.65,-0.03 -0.12,-4.7 0.32,-9.49 -0.17,-14.17 -4.15,-6.2 -9.5,-11.77 -14.06,-17.72 0.1,-4.04 -0.41,-8.1 -0.23,-12.13 0.04,-1.87 2.04,-2.75 3.24,-3.88 z"
         fill="#b89755"
         id="path99" />
      <path
         d="m 457.27,578.57 c 4.42,5.3 8.71,10.7 13.13,16 1.05,1.42 2.21,2.51 2.16,4.41 0.07,7.34 0.03,14.71 0.01,22.06 0.13,4.17 -2.42,8.12 -6.54,9.2 -3.49,0.66 -7.24,0.34 -10.78,0.35 0.19,-4.46 0.18,-8.93 0.27,-13.4 -3.38,-0.04 -6.8,-0.03 -10.17,-0.27 l -0.05,-0.77 c 4.91,0.07 9.81,0.08 14.72,0 -0.01,-4.65 0.47,-9.46 -0.15,-14.08 -0.88,-1.92 -2.4,-3.6 -3.71,-5.25 1.58,-6.06 0.46,-11.92 1.11,-18.25 z"
         fill="#ede091"
         id="path100" />
      <path
         d="m 432.88,601.24 c 4.09,0 8.18,0.01 12.27,0.02 0.24,4.96 0.07,9.93 0.15,14.89 l 0.05,0.77 c 3.37,0.24 6.79,0.23 10.17,0.27 -0.09,4.47 -0.08,8.94 -0.27,13.4 -4.75,-0.11 -9.53,0.23 -14.28,-0.08 -4.46,-0.17 -8.04,-4.08 -8.14,-8.48 -0.2,-6.91 -0.11,-13.87 0.05,-20.79 z"
         fill="#e8d98c"
         id="path101" />
      <path
         d="m 753.76,601.33 c 4.19,-0.09 8.37,-0.1 12.55,-0.03 0.03,4.96 -0.19,9.98 0.16,14.93 0.56,4.85 0.72,9.52 0.53,14.4 -3.31,-0.07 -6.98,0.39 -9.71,-1.87 -2.45,-1.92 -3.52,-4.67 -3.5,-7.74 -0.09,-6.56 0.04,-13.13 -0.03,-19.69 z"
         fill="#bd9d5a"
         id="path102" />
      <path
         d="m 858.37,617.23 c 4.11,-0.31 8.28,-0.07 12.41,-0.12 0,4.57 0,9.15 -0.01,13.72 -4.17,0.01 -8.33,0 -12.5,-0.02 0.08,-4.52 -0.19,-9.07 0.1,-13.58 z"
         fill="#a77e40"
         id="path103" />
      <path
         d="m 914.35,617.22 c 4.12,-0.29 8.28,-0.06 12.41,-0.11 0.01,4.57 0.01,9.15 0,13.72 -4.17,0 -8.34,0 -12.51,-0.01 0.08,-4.53 -0.18,-9.08 0.1,-13.6 z"
         fill="#9a6d32"
         id="path104" />
    </g>
  </g>
  <g
     id="g175"
     transform="matrix(0.89009718,0,0,0.85061627,44.718508,129.30581)">
    <g
       id="layer6"
       style="display:inline">
      <path
         d="m 505,250.14 c 7.08,0.15 14.8,0.44 21.54,2.75 -1.26,0.39 -2.52,0.78 -3.79,1.16 -6.25,-0.8 -12.36,-1.94 -18.69,-1.8 0.67,8.8 3.62,17.38 7.42,25.29 2.12,-0.14 4.37,-0.42 6.47,-0.09 l 0.51,2.12 c -2.09,-0.09 -4.3,-0.28 -6.26,0.62 -3.05,1.44 -4.69,5.07 -3.77,8.31 0.7,1.76 1.87,3.38 2.87,4.99 l -1.89,0.25 c -0.46,-0.15 -0.92,-0.29 -1.38,-0.43 -2.96,1.81 -5.41,4.08 -7.92,6.45 2.12,3.95 2.67,6.65 2.34,11.17 7.79,3.52 15.5,6.96 22.66,11.69 -0.75,0.39 -1.5,0.78 -2.25,1.17 -6.76,-3.86 -13.74,-7.73 -21.01,-10.73 -1.21,1.25 -2.34,2.58 -3.56,3.82 l -1.66,-0.89 c 2.43,-3 4.43,-5.94 3.69,-10.03 -0.62,-3.95 -3.29,-6.12 -6.41,-8.21 0.87,-0.21 1.74,-0.44 2.61,-0.68 0.72,0.31 1.44,0.62 2.17,0.93 2.52,-2.27 5.37,-4.19 7.78,-6.57 0.12,-2.14 -0.29,-4.29 -0.25,-6.44 0.29,-1.86 1.53,-3.64 2.37,-5.3 -4.59,-6.08 -10.52,-11.17 -16.61,-15.7 0.76,-0.33 1.52,-0.65 2.28,-0.97 4.96,3.21 8.6,7.53 13.04,11.35 -2.36,-7.32 -4.62,-14.49 -5.58,-22.16 -6.53,0.27 -12.91,1.16 -19.29,2.54 -0.46,-0.7 -0.91,-1.4 -1.37,-2.1 7.83,-2.02 15.87,-2.69 23.94,-2.51 z"
         fill="#efe494"
         id="path23" />
      <path
         d="m 501.72,252.21 c 0.96,7.67 3.22,14.84 5.58,22.16 -4.44,-3.82 -8.08,-8.14 -13.04,-11.35 -4.8,-3.35 -9.99,-5.64 -15.52,-7.47 1.23,-0.27 2.46,-0.54 3.69,-0.8 6.38,-1.38 12.76,-2.27 19.29,-2.54 z"
         fill="#ffffff"
         id="path24" />
      <path
         d="m 504.06,252.25 c 6.33,-0.14 12.44,1 18.69,1.8 12.38,2.06 24.57,7.59 34.72,14.91 -7.19,1.53 -14.12,3.39 -21.03,5.95 -4.7,1.49 -8.75,3.75 -13.17,5.89 -1.71,-1.22 -3.43,-2.41 -5.32,-3.35 -2.1,-0.33 -4.35,-0.05 -6.47,0.09 -3.8,-7.91 -6.75,-16.49 -7.42,-25.29 z"
         fill="#ffffff"
         id="path25" />
      <path
         d="m 481.06,252.65 c 0.46,0.7 0.91,1.4 1.37,2.1 -1.23,0.26 -2.46,0.53 -3.69,0.8 5.53,1.83 10.72,4.12 15.52,7.47 -0.76,0.32 -1.52,0.64 -2.28,0.97 -5.95,-4.14 -12.79,-6.7 -20.13,-6.17 1.54,-0.8 2.37,-1.88 3.3,-3.33 1.95,-0.66 3.92,-1.29 5.91,-1.84 z"
         fill="#d9c57b"
         id="path26" />
      <path
         d="m 526.54,252.89 c 15.04,3.71 29.06,10.43 40.69,20.74 l 0.04,2.77 c -2.34,-1.94 -4.76,-3.8 -7.15,-5.68 -7.33,1.28 -14.55,2.84 -21.52,5.5 l -2.16,-1.31 c 6.91,-2.56 13.84,-4.42 21.03,-5.95 -10.15,-7.32 -22.34,-12.85 -34.72,-14.91 1.27,-0.38 2.53,-0.77 3.79,-1.16 z"
         fill="#bc9c59"
         id="path27" />
      <path
         d="m 475.15,254.49 c -0.93,1.45 -1.76,2.53 -3.3,3.33 -4.11,1.3 -7.87,2.94 -10.64,6.39 -5.96,6.98 -8.38,17.33 -9.25,26.26 2,1.02 4.44,1.94 5.79,3.83 0.98,1.46 1.5,3.28 2.14,4.91 l 0.28,0.42 c 4.83,0.63 9.62,1.48 14.4,2.46 -1.53,0.42 -3.05,0.84 -4.59,1.2 -3.33,-0.62 -6.64,-1.23 -10.02,-1.5 -1.86,3.13 -2.88,6.14 -6.79,7.14 -1.82,-0.39 -3.6,-0.94 -5.32,-1.62 2.76,-0.14 5.35,0.09 7.45,-2.02 2.95,-2.86 2.95,-7.7 -0.07,-10.52 -2.02,-2.06 -4.33,-1.69 -6.97,-2.07 -0.85,-0.3 -1.71,-0.62 -2.55,-0.94 1.28,-0.52 2.58,-0.98 3.89,-1.44 1,-9.4 3.31,-18.32 8.56,-26.29 -4.13,2.31 -8.02,4.97 -11.86,7.72 -0.81,-0.28 -1.62,-0.56 -2.43,-0.83 9.1,-7.32 20.1,-13.06 31.28,-16.43 z"
         fill="#c7aa65"
         id="path28" />
      <path
         d="m 471.85,257.82 c 7.34,-0.53 14.18,2.03 20.13,6.17 6.09,4.53 12.02,9.62 16.61,15.7 -0.84,1.66 -2.08,3.44 -2.37,5.3 -0.04,2.15 0.37,4.3 0.25,6.44 -2.41,2.38 -5.26,4.3 -7.78,6.57 -0.73,-0.31 -1.45,-0.62 -2.17,-0.93 -3.38,-1.66 -6.81,-2.42 -10.44,-1.04 -3.53,1.23 -5.36,3.9 -7.44,6.8 -1.36,-0.24 -2.72,-0.48 -4.07,-0.74 -4.78,-0.98 -9.57,-1.83 -14.4,-2.46 l -0.28,-0.42 c -0.64,-1.63 -1.16,-3.45 -2.14,-4.91 -1.35,-1.89 -3.79,-2.81 -5.79,-3.83 0.87,-8.93 3.29,-19.28 9.25,-26.26 2.77,-3.45 6.53,-5.09 10.64,-6.39 z"
         fill="#ffffff"
         id="path29" />
      <path
         d="m 458.16,264.03 c -5.25,7.97 -7.56,16.89 -8.56,26.29 -1.31,0.46 -2.61,0.92 -3.89,1.44 -3.01,1.79 -4.11,4.26 -5.09,7.48 -7.19,0.59 -13.78,1.9 -20.68,3.98 6.42,-12.11 15.44,-23.15 26.36,-31.47 3.84,-2.75 7.73,-5.41 11.86,-7.72 z"
         fill="#ffffff"
         id="path30" />
      <path
         d="m 443.87,270.92 c 0.81,0.27 1.62,0.55 2.43,0.83 -10.92,8.32 -19.94,19.36 -26.36,31.47 6.9,-2.08 13.49,-3.39 20.68,-3.98 0.98,-3.22 2.08,-5.69 5.09,-7.48 0.84,0.32 1.7,0.64 2.55,0.94 -2.66,1.47 -4.84,3.08 -5.31,6.29 -0.61,3.81 1.76,6.58 4.9,8.32 1.72,0.68 3.5,1.23 5.32,1.62 l -1.6,0.54 c -1.41,0.87 -1.18,5.22 -1.54,6.93 -0.17,-2.25 -0.37,-4.49 -0.56,-6.73 -1.96,-0.8 -4.53,-1.54 -5.99,-3.15 -1.2,-1.53 -2.06,-3.43 -3.11,-5.06 -7.49,0.31 -15.01,2.27 -22.05,4.8 -7.33,15.98 -10.54,33.71 -8.48,51.22 1.96,17.93 9.19,35.14 20.47,49.19 l -1.19,2.11 c -10.78,-13.14 -18.12,-29.01 -20.89,-45.8 -3.06,-17.92 -0.83,-36.73 6.24,-53.47 6.24,-15.07 16.66,-28.45 29.4,-38.59 z"
         fill="#ab8345"
         id="path31" />
      <path
         d="m 560.12,270.72 c 2.39,1.88 4.81,3.74 7.15,5.68 12.49,11.32 21.73,25.8 27,41.79 -1.8,1.8 -2.97,3.42 -3.97,5.78 -9.76,0.08 -19.83,-1.16 -29.05,-4.47 -12.68,-4.51 -24.44,-11.06 -34.12,-20.51 -1.67,-1.68 -3.25,-3.45 -4.84,-5.2 0.87,-1.58 1.88,-3.21 2.42,-4.94 0.38,-2.01 -0.02,-4.2 -0.2,-6.23 4.59,-2.39 9.34,-4.37 14.09,-6.4 6.97,-2.66 14.19,-4.22 21.52,-5.5 z"
         fill="#ffffff"
         id="path32" />
      <path
         d="m 567.23,273.63 c 14.11,12.22 24.69,28.37 29.88,46.32 6.09,20.85 4.89,43.69 -3.4,63.77 -5.57,13.66 -14.31,25.85 -25.3,35.68 l -1.5,-1.48 c 7.25,-6.29 13.23,-13.78 18.23,-21.94 -1.75,-6.33 -4.09,-12.09 -7.18,-17.88 -3.86,0.69 -6.18,0.56 -9.8,-1.03 l 2.18,-1.1 c 3.11,0.53 5.74,1 8.27,-1.33 3.61,-3.18 3.23,-8.85 -0.72,-11.54 -2.86,-1.99 -5.68,-1.42 -8.61,0.02 -0.66,-0.54 -1.31,-1.08 -1.95,-1.64 -1.21,-1.14 -2.35,-2.35 -3.45,-3.59 0.72,-0.27 1.44,-0.54 2.16,-0.81 0.97,1.23 1.94,2.47 2.91,3.7 3.92,-1.24 6.13,-1.24 10.03,0.11 6.55,-9.06 11.77,-19.04 15.27,-29.67 -1.52,-1.53 -2.75,-3.09 -3.89,-4.92 -9.86,-0.04 -19.09,-1.57 -28.55,-4.26 -0.19,-0.84 -0.37,-1.69 -0.56,-2.54 9.22,3.31 19.29,4.55 29.05,4.47 1,-2.36 2.17,-3.98 3.97,-5.78 -5.27,-15.99 -14.51,-30.47 -27,-41.79 z"
         fill="#9f7337"
         id="path33" />
      <path
         d="m 536.44,274.91 2.16,1.31 c -4.75,2.03 -9.5,4.01 -14.09,6.4 0.18,2.03 0.58,4.22 0.2,6.23 -0.54,1.73 -1.55,3.36 -2.42,4.94 1.59,1.75 3.17,3.52 4.84,5.2 -1.13,0.76 -2.23,1.56 -3.33,2.35 -1.21,-2.01 -2.48,-3.99 -3.77,-5.96 -4.09,0.62 -7.11,1 -10.62,-1.64 l 1.89,-0.25 c 2.29,0.04 5.01,0.97 7.08,-0.09 3.4,-1.48 5.16,-5.41 4.07,-8.95 -0.55,-2.07 -2.53,-3.39 -3.99,-4.88 l -0.51,-2.12 c 1.89,0.94 3.61,2.13 5.32,3.35 4.42,-2.14 8.47,-4.4 13.17,-5.89 z"
         fill="#e1cf83"
         id="path34" />
      <path
         d="m 518.46,279.57 c 1.46,1.49 3.44,2.81 3.99,4.88 1.09,3.54 -0.67,7.47 -4.07,8.95 -2.07,1.06 -4.79,0.13 -7.08,0.09 -1,-1.61 -2.17,-3.23 -2.87,-4.99 -0.92,-3.24 0.72,-6.87 3.77,-8.31 1.96,-0.9 4.17,-0.71 6.26,-0.62 z"
         fill="#ffffff"
         id="path35" />
      <path
         d="m 448.26,292.7 c 2.64,0.38 4.95,0.01 6.97,2.07 3.02,2.82 3.02,7.66 0.07,10.52 -2.1,2.11 -4.69,1.88 -7.45,2.02 -3.14,-1.74 -5.51,-4.51 -4.9,-8.32 0.47,-3.21 2.65,-4.82 5.31,-6.29 z"
         fill="#ffffff"
         id="path36" />
      <path
         d="m 508.03,293.31 c 0.46,0.14 0.92,0.28 1.38,0.43 3.51,2.64 6.53,2.26 10.62,1.64 1.29,1.97 2.56,3.95 3.77,5.96 0.33,0.55 0.66,1.1 0.98,1.65 5.05,8.92 9.63,18.24 13.11,27.9 -4.28,-2.73 -8.48,-5.57 -12.78,-8.27 -7.16,-4.73 -14.87,-8.17 -22.66,-11.69 0.33,-4.52 -0.22,-7.22 -2.34,-11.17 2.51,-2.37 4.96,-4.64 7.92,-6.45 z"
         fill="#ffffff"
         id="path37" />
      <path
         d="m 496.52,297.07 c -0.87,0.24 -1.74,0.47 -2.61,0.68 -4.53,-0.55 -8.53,-0.15 -11.49,3.68 -3.99,5.01 -2.09,12.8 3.78,15.36 3.68,1.73 6.92,0.65 10.43,-0.8 l 1.66,0.89 c -2.12,1.68 -4.53,2.88 -7.28,2.99 -2.81,0.16 -5.35,-0.98 -7.96,-1.88 -5.59,7.04 -10.21,14.68 -14.68,22.46 l -1.32,-2.13 c 3.71,-7.74 9.28,-15.08 14.18,-21.98 -2.64,-3.93 -3.32,-6.47 -3.43,-11.22 -2.6,-0.63 -5.21,-1.27 -7.82,-1.83 1.54,-0.36 3.06,-0.78 4.59,-1.2 1.35,0.26 2.71,0.5 4.07,0.74 2.08,-2.9 3.91,-5.57 7.44,-6.8 3.63,-1.38 7.06,-0.62 10.44,1.04 z"
         fill="#e6d689"
         id="path38" />
      <path
         d="m 493.91,297.75 c 3.12,2.09 5.79,4.26 6.41,8.21 0.74,4.09 -1.26,7.03 -3.69,10.03 -3.51,1.45 -6.75,2.53 -10.43,0.8 -5.87,-2.56 -7.77,-10.35 -3.78,-15.36 2.96,-3.83 6.96,-4.23 11.49,-3.68 z"
         fill="#ffffff"
         id="path39" />
      <path
         d="m 527.13,298.99 c 9.68,9.45 21.44,16 34.12,20.51 0.19,0.85 0.37,1.7 0.56,2.54 -12.34,-3.56 -24.13,-10.41 -33.52,-19.16 -0.51,-0.45 -1.05,-0.87 -1.61,-1.25 l -0.22,0.14 c -0.56,0.4 -1.12,0.81 -1.68,1.22 -0.32,-0.55 -0.65,-1.1 -0.98,-1.65 1.1,-0.79 2.2,-1.59 3.33,-2.35 z"
         fill="#d3bd7e"
         id="path40" />
      <path
         d="m 526.46,301.77 0.22,-0.14 c 0.56,0.38 1.1,0.8 1.61,1.25 -0.34,1.51 0.22,2.59 0.9,3.88 4.61,8.41 8.71,17.18 11.89,26.22 -0.35,0.79 -0.69,1.57 -1.02,2.35 -5.52,-4.04 -11.22,-8.22 -17.2,-11.54 0.75,-0.39 1.5,-0.78 2.25,-1.17 4.3,2.7 8.5,5.54 12.78,8.27 -3.48,-9.66 -8.06,-18.98 -13.11,-27.9 0.56,-0.41 1.12,-0.82 1.68,-1.22 z"
         fill="#d2bb74"
         id="path41" />
      <path
         d="m 440.37,301.46 c 1.05,1.63 1.91,3.53 3.11,5.06 1.46,1.61 4.03,2.35 5.99,3.15 0.19,2.24 0.39,4.48 0.56,6.73 0.6,8.81 2.53,17.78 4.36,26.36 -2.75,1.51 -5.34,2.84 -7.15,5.51 -3.63,4.95 -3.79,11.77 -0.44,16.9 1.66,2.72 4.12,4.19 6.72,5.88 -3.98,14.04 -6.56,28.36 -7.03,42.96 -0.09,1.34 -0.09,2.85 -0.54,4.12 -1.89,0 -4.46,0.25 -5.91,-1.18 -3.56,-3.07 -6.66,-6.72 -9.73,-10.28 -11.28,-14.05 -18.51,-31.26 -20.47,-49.19 -2.06,-17.51 1.15,-35.24 8.48,-51.22 7.04,-2.53 14.56,-4.49 22.05,-4.8 z"
         fill="#ffffff"
         id="path42" />
      <path
         d="m 459.96,301.79 c 3.38,0.27 6.69,0.88 10.02,1.5 2.61,0.56 5.22,1.2 7.82,1.83 0.11,4.75 0.79,7.29 3.43,11.22 -4.9,6.9 -10.47,14.24 -14.18,21.98 -0.71,1.48 -1.44,2.96 -2.17,4.44 -2.81,-0.36 -5.63,-0.59 -8.46,-0.82 -2.48,-10.77 -4.12,-21.43 -4.85,-32.47 l 1.6,-0.54 c 3.91,-1 4.93,-4.01 6.79,-7.14 z"
         fill="#ffffff"
         id="path43" />
      <path
         d="m 528.29,302.88 c 9.39,8.75 21.18,15.6 33.52,19.16 9.46,2.69 18.69,4.22 28.55,4.26 1.14,1.83 2.37,3.39 3.89,4.92 -3.5,10.63 -8.72,20.61 -15.27,29.67 -3.9,-1.35 -6.11,-1.35 -10.03,-0.11 -0.97,-1.23 -1.94,-2.47 -2.91,-3.7 -4.9,-6.07 -10.55,-11.6 -16.44,-16.71 -2.86,-2.5 -5.96,-4.53 -8.52,-7.39 -3.18,-9.04 -7.28,-17.81 -11.89,-26.22 -0.68,-1.29 -1.24,-2.37 -0.9,-3.88 z"
         fill="#ffffff"
         id="path44" />
      <path
         d="m 451.57,309.47 c 0.73,11.04 2.37,21.7 4.85,32.47 2.83,0.23 5.65,0.46 8.46,0.82 0.73,-1.48 1.46,-2.96 2.17,-4.44 l 1.32,2.13 c -0.58,1.08 -1.17,2.16 -1.75,3.25 3.57,2.75 6.59,5.63 7.48,10.26 1.58,7.28 -2.39,13.65 -8.69,17.06 2.15,5.4 4.14,10.77 6.82,15.86 -0.38,0.9 -0.77,1.81 -1.15,2.71 -2.6,-5.94 -5.17,-11.88 -7.66,-17.87 -2.58,0.08 -5.16,0.11 -7.75,0.08 -4.54,15.04 -6.78,30.88 -7.15,46.56 8.01,0.12 16.11,0.21 24.08,-0.7 -1.55,0.86 -3.03,1.78 -4.72,2.36 -6.54,0.5 -13.1,0.59 -19.66,0.58 0.42,1.81 -0.03,3.33 1.79,4.39 8.02,5.55 17.03,10.27 26.47,12.83 -0.9,0.46 -1.8,0.91 -2.7,1.36 -17.38,-5.9 -33.05,-16.1 -44.66,-30.4 l 1.19,-2.11 c 3.07,3.56 6.17,7.21 9.73,10.28 1.45,1.43 4.02,1.18 5.91,1.18 0.45,-1.27 0.45,-2.78 0.54,-4.12 0.47,-14.6 3.05,-28.92 7.03,-42.96 -2.6,-1.69 -5.06,-3.16 -6.72,-5.88 -3.35,-5.13 -3.19,-11.95 0.44,-16.9 1.81,-2.67 4.4,-4 7.15,-5.51 -1.83,-8.58 -3.76,-17.55 -4.36,-26.36 0.36,-1.71 0.13,-6.06 1.54,-6.93 z"
         fill="#bfa15d"
         id="path45" />
      <path
         d="m 501.85,313.06 c 7.27,3 14.25,6.87 21.01,10.73 5.98,3.32 11.68,7.5 17.2,11.54 6.08,16.86 10.44,34.14 12.54,51.96 -8.96,6.39 -18.48,12.7 -28.73,16.78 -7.91,3.07 -15.7,6.3 -23.94,8.42 -2.02,-2.98 -3.5,-6.01 -7.05,-7.41 -3.67,-1.67 -7.13,-0.93 -10.86,-0.02 -3.61,-5.89 -6.55,-12.1 -9.79,-18.18 -2.68,-5.09 -4.67,-10.46 -6.82,-15.86 6.3,-3.41 10.27,-9.78 8.69,-17.06 -0.89,-4.63 -3.91,-7.51 -7.48,-10.26 0.58,-1.09 1.17,-2.17 1.75,-3.25 4.47,-7.78 9.09,-15.42 14.68,-22.46 2.61,0.9 5.15,2.04 7.96,1.88 2.75,-0.11 5.16,-1.31 7.28,-2.99 1.22,-1.24 2.35,-2.57 3.56,-3.82 z"
         fill="#ffffff"
         id="path46" />
      <path
         d="m 594.9,320.7 c 0.97,2.9 1.62,5.87 2.13,8.88 -1.76,-1.05 -3.54,-1.39 -4.11,-3.61 -0.69,-2.38 0.6,-3.61 1.98,-5.27 z"
         fill="#ffffff"
         id="path47" />
      <path
         d="m 597.08,331.07 c 0.71,2.94 1.17,5.9 1.35,8.93 1.32,18.42 -2.61,37.1 -11.8,53.17 -1.87,-5.7 -4.1,-11.04 -6.97,-16.31 1.61,-2.19 3.27,-3.96 3.52,-6.81 0.38,-3.12 -1.14,-5.25 -2.55,-7.83 5.2,-7.03 9.59,-14.63 12.92,-22.73 1.12,-2.83 2.2,-5.68 3.53,-8.42 z"
         fill="#ffffff"
         id="path48" />
      <path
         d="m 541.08,332.98 c 2.56,2.86 5.66,4.89 8.52,7.39 5.89,5.11 11.54,10.64 16.44,16.71 -0.72,0.27 -1.44,0.54 -2.16,0.81 -6.33,-7.41 -13.15,-14.29 -20.88,-20.25 1.65,5.75 3.79,11.33 5.28,17.13 2.9,10.21 4.73,20.62 6.27,31.11 4.02,-3.38 8.02,-6.76 11.74,-10.48 -0.86,-2.05 -2.06,-4.12 -1.99,-6.4 -0.01,-2.82 1.73,-5.15 3.03,-7.52 0.64,0.56 1.29,1.1 1.95,1.64 -1.65,2.11 -3.1,4.06 -2.74,6.92 0.32,2.62 2.08,4.14 3.8,5.93 l -2.18,1.1 -0.23,0.12 c -3.86,3.43 -7.63,6.86 -11.73,10.01 -1.97,1.31 -1.22,2.79 -1.2,4.8 1.12,12.34 0.48,24.74 -2.85,36.71 5.24,-3.22 10.11,-6.77 14.76,-10.79 l 1.5,1.48 c -11.96,10.94 -26.55,17.92 -42.17,21.92 0.39,-0.75 0.78,-1.51 1.17,-2.27 7.65,-1.62 15.12,-5.12 22.02,-8.72 4.33,-12.92 4.61,-27.05 3.34,-40.5 -4.84,3.18 -9.6,6.42 -14.7,9.19 -4.67,2.65 -9.59,4.73 -14.33,7.24 0.04,-0.73 0.08,-1.46 0.13,-2.19 10.25,-4.08 19.77,-10.39 28.73,-16.78 -2.1,-17.82 -6.46,-35.1 -12.54,-51.96 0.33,-0.78 0.67,-1.56 1.02,-2.35 z"
         fill="#b79553"
         id="path49" />
      <path
         d="m 543,337.64 c 7.73,5.96 14.55,12.84 20.88,20.25 1.1,1.24 2.24,2.45 3.45,3.59 -1.3,2.37 -3.04,4.7 -3.03,7.52 -0.07,2.28 1.13,4.35 1.99,6.4 -3.72,3.72 -7.72,7.1 -11.74,10.48 -1.54,-10.49 -3.37,-20.9 -6.27,-31.11 -1.49,-5.8 -3.63,-11.38 -5.28,-17.13 z"
         fill="#ffffff"
         id="path50" />
      <path
         d="m 456.43,344.46 c 6.08,-1.36 12.31,1.47 14.97,7.16 3.05,6.52 0.01,14.39 -6.51,17.3 -6.95,3.21 -15.53,-0.73 -17.69,-8.05 -2.19,-7.02 2.1,-14.66 9.23,-16.41 z"
         fill="#ffffff"
         id="path51" />
      <path
         d="m 462.65,348.49 c 4.18,0.9 6.9,5.41 6.47,9.54 -0.14,3.62 -2.51,6.09 -5.48,7.84 l 0.31,-2.53 c 1.04,-1.7 2.49,-3.35 2.68,-5.38 0.31,-3.82 -2.22,-6.8 -5.57,-8.26 -1.87,-0.64 -3.98,0.6 -5.77,1.19 l -1.81,-1.24 c 2.88,-1.67 5.97,-1.55 9.17,-1.16 z"
         fill="#c4a76c"
         id="path52" />
      <path
         d="m 453.48,349.65 1.81,1.24 c -1.72,2.17 -3.33,4.12 -3.02,7.09 0.19,2.23 1.61,3.61 2.79,5.4 l 0.16,2.41 c -3.15,-2.04 -5.55,-4.84 -5.33,-8.8 -0.02,-3.09 1.67,-5.15 3.59,-7.34 z"
         fill="#b28f57"
         id="path53" />
      <path
         d="m 461.06,349.7 c 3.35,1.46 5.88,4.44 5.57,8.26 -0.19,2.03 -1.64,3.68 -2.68,5.38 -3.56,1.42 -5.31,1.37 -8.89,0.04 -1.18,-1.79 -2.6,-3.17 -2.79,-5.4 -0.31,-2.97 1.3,-4.92 3.02,-7.09 1.79,-0.59 3.9,-1.83 5.77,-1.19 z"
         fill="#ffffff"
         id="path54" />
      <path
         d="m 577.89,363.1 c 3.95,2.69 4.33,8.36 0.72,11.54 -2.53,2.33 -5.16,1.86 -8.27,1.33 -1.72,-1.79 -3.48,-3.31 -3.8,-5.93 -0.36,-2.86 1.09,-4.81 2.74,-6.92 2.93,-1.44 5.75,-2.01 8.61,-0.02 z"
         fill="#ffffff"
         id="path55" />
      <path
         d="m 455.06,363.38 c 3.58,1.33 5.33,1.38 8.89,-0.04 l -0.31,2.53 c -2.46,1.12 -5.99,1.16 -8.42,-0.08 z"
         fill="#eade90"
         id="path56" />
      <path
         d="m 455.67,371.8 c 2.59,0.03 5.17,0 7.75,-0.08 2.49,5.99 5.06,11.93 7.66,17.87 2.5,5.94 5.94,11.29 8.91,16.98 -3.12,3.4 -4.07,5.4 -4.67,10.04 -0.91,0.35 -1.82,0.7 -2.72,1.05 -7.97,0.91 -16.07,0.82 -24.08,0.7 0.37,-15.68 2.61,-31.52 7.15,-46.56 z"
         fill="#ffffff"
         id="path57" />
      <path
         d="m 567.93,377.19 0.23,-0.12 c 3.62,1.59 5.94,1.72 9.8,1.03 3.09,5.79 5.43,11.55 7.18,17.88 -5,8.16 -10.98,15.65 -18.23,21.94 -4.65,4.02 -9.52,7.57 -14.76,10.79 3.33,-11.97 3.97,-24.37 2.85,-36.71 -0.02,-2.01 -0.77,-3.49 1.2,-4.8 4.1,-3.15 7.87,-6.58 11.73,-10.01 z"
         fill="#ffffff"
         id="path58" />
      <path
         d="m 472.23,386.88 c 3.24,6.08 6.18,12.29 9.79,18.18 3.73,-0.91 7.19,-1.65 10.86,0.02 3.55,1.4 5.03,4.43 7.05,7.41 8.24,-2.12 16.03,-5.35 23.94,-8.42 -0.05,0.73 -0.09,1.46 -0.13,2.19 -7.26,3.73 -15.48,5.96 -23.3,8.21 -0.42,4.72 -1.37,7.49 -3.99,11.39 4.86,5.48 9.84,10.62 16.05,14.62 1.46,1.04 2.84,0.57 4.49,0.41 3.48,-0.55 6.94,-1.25 10.42,-1.84 -0.39,0.76 -0.78,1.52 -1.17,2.27 -3.82,1.13 -7.74,1.73 -11.7,2.07 -13.78,1.09 -27.65,0.53 -40.76,-4.21 0.9,-0.45 1.8,-0.9 2.7,-1.36 10.64,2.8 22.29,4.99 33.3,3.62 -5.37,-4.45 -10.49,-9.05 -15.02,-14.37 -4.01,1.18 -7.47,2.49 -11.58,0.73 -3.86,-1.5 -5.7,-4.59 -7.39,-8.14 -2.64,0.08 -5.27,0.17 -7.91,0.36 1.69,-0.58 3.17,-1.5 4.72,-2.36 0.9,-0.35 1.81,-0.7 2.72,-1.05 0.6,-4.64 1.55,-6.64 4.67,-10.04 -2.97,-5.69 -6.41,-11.04 -8.91,-16.98 0.38,-0.9 0.77,-1.81 1.15,-2.71 z"
         fill="#ebde90"
         id="path59" />
      <path
         d="m 552.77,389.83 c 1.27,13.45 0.99,27.58 -3.34,40.5 -6.9,3.6 -14.37,7.1 -22.02,8.72 -3.48,0.59 -6.94,1.29 -10.42,1.84 -1.65,0.16 -3.03,0.63 -4.49,-0.41 -6.21,-4 -11.19,-9.14 -16.05,-14.62 2.62,-3.9 3.57,-6.67 3.99,-11.39 7.82,-2.25 16.04,-4.48 23.3,-8.21 4.74,-2.51 9.66,-4.59 14.33,-7.24 5.1,-2.77 9.86,-6.01 14.7,-9.19 z"
         fill="#ffffff"
         id="path60" />
      <path
         d="m 485.47,406.6 c 4.27,-1.18 9.05,0.92 11.21,4.75 2.69,4.53 1.33,10.41 -3.04,13.31 -4.93,3.43 -11.89,1.57 -14.63,-3.71 -2.93,-5.74 0.29,-12.7 6.46,-14.35 z"
         fill="#ffffff"
         id="path61" />
      <path
         d="m 444.52,420.1 c 1.39,-0.85 2.75,1.61 0.87,1.8 -1.01,-0.39 -1.3,-0.99 -0.87,-1.8 z"
         fill="#e0d1b4"
         id="path62" />
      <path
         d="m 467.88,420.02 c 2.64,-0.19 5.27,-0.28 7.91,-0.36 1.69,3.55 3.53,6.64 7.39,8.14 4.11,1.76 7.57,0.45 11.58,-0.73 4.53,5.32 9.65,9.92 15.02,14.37 -11.01,1.37 -22.66,-0.82 -33.3,-3.62 -9.44,-2.56 -18.45,-7.28 -26.47,-12.83 -1.82,-1.06 -1.37,-2.58 -1.79,-4.39 6.56,0.01 13.12,-0.08 19.66,-0.58 z"
         fill="#ffffff"
         id="path63" />
    </g>
  </g>
</svg>
