
        <svg xmlns="http://www.w3.org/2000/svg" xmlns:xlink="http://www.w3.org/1999/xlink" version="1.1" width="3033.3914442805417" height="3160.922623038756" viewBox="0 0 3033.3914442805417 3160.922623038756">
			
			<g transform="scale(8.046131151937777) translate(10, 10)">
				<defs id="SvgjsDefs2134"><linearGradient id="SvgjsLinearGradient2143"><stop id="SvgjsStop2144" stop-color="#905e26" offset="0"/><stop id="SvgjsStop2145" stop-color="#f5ec9b" offset="0.5"/><stop id="SvgjsStop2146" stop-color="#905e26" offset="1"/></linearGradient><linearGradient id="SvgjsLinearGradient2147"><stop id="SvgjsStop2148" stop-color="#905e26" offset="0"/><stop id="SvgjsStop2149" stop-color="#f5ec9b" offset="0.5"/><stop id="SvgjsStop2150" stop-color="#905e26" offset="1"/></linearGradient><linearGradient id="SvgjsLinearGradient2151"><stop id="SvgjsStop2152" stop-color="#905e26" offset="0"/><stop id="SvgjsStop2153" stop-color="#f5ec9b" offset="0.5"/><stop id="SvgjsStop2154" stop-color="#905e26" offset="1"/></linearGradient><linearGradient id="SvgjsLinearGradient2155"><stop id="SvgjsStop2156" stop-color="#905e26" offset="0"/><stop id="SvgjsStop2157" stop-color="#f5ec9b" offset="0.5"/><stop id="SvgjsStop2158" stop-color="#905e26" offset="1"/></linearGradient></defs><g id="SvgjsG2135" featureKey="rootContainer" transform="matrix(1.05,0,0,1.05,-5.25,19)" fill="#fff"><path xmlns="http://www.w3.org/2000/svg" fill-rule="evenodd" d="M5,65 L175,0 L345, 65 L175, 10 z M5,257 L175,337 L345,252 L175, 327 z"/></g><g id="SvgjsG2136" featureKey="symbolFeature-0" transform="matrix(0.8192882490485404,0,0,0.8192882490485404,138.4939029102206,79.49405995838694)" fill="#fff"><title xmlns="http://www.w3.org/2000/svg">Artboard 10</title><path xmlns="http://www.w3.org/2000/svg" d="M20.59766,83.41064c1.09863.958,2.12793,1.7832,3.14453,2.521A44.17426,44.17426,0,0,0,49.99316,94.5a39.90027,39.90027,0,0,0,4.35449-.22119,43.80257,43.80257,0,0,0,17.126-5.29248,44.57384,44.57384,0,0,0,22.35059-46.752c-.13184-.79395-.30371-1.61279-.52441-2.502-.002-.01562-.00488-.03076-.00781-.04639-.20483-.8866-.42651-1.70587-.67383-2.49854v-.001l-.00049-.001-.00342-.01166A44.69135,44.69135,0,0,0,76.27466,14.084l-.00537-.004A44.14166,44.14166,0,0,0,49.99316,5.5h-.55859A44.25694,44.25694,0,0,0,34.46,8.291l-.01477.0047-.04089.01239c-.28027.06836-.55957.16064-.82812.25488a7.23724,7.23724,0,0,0-1.30566.60645c-.0166.00635-.0332.01367-.04883.02148l-.06433.03278a44.51609,44.51609,0,0,0-11.55969,74.187ZM89.80493,40.446a3.07486,3.07486,0,0,0,1.70874,2.12982c-.23389.73572-.49536,1.49866-.79687,2.29187a48.14564,48.14564,0,0,1-6.371,11.60779,4.23547,4.23547,0,0,0-4.402-.1098,69.83571,69.83571,0,0,0-12.71509-12.487c-1.0448-2.76062-2.15259-5.38385-3.29614-7.7981a.44045.44045,0,0,0-.02637-.06934c-1.18506-2.509-2.4519-4.8985-3.77295-7.16949a38.85887,38.85887,0,0,0,2.938,2.57574.54045.54045,0,0,0,.07227.06934,42.17534,42.17534,0,0,0,26.15137,8.96631C89.467,40.45313,89.63452,40.44794,89.80493,40.446Zm.92847-.64716A2.0705,2.0705,0,0,1,91.811,37.99139c.17676.60345.34375,1.2196.49756,1.88019a.43161.43161,0,0,0,.01074.061c.17041.68207.30249,1.31378.41736,1.9306a2.06426,2.06426,0,0,1-1.991-1.94238l.00037-.00238-.0011-.00476C90.7428,39.87488,90.7334,39.83813,90.7334,39.79883Zm-8.68945,23.7168a3.35669,3.35669,0,1,1,3.35645-3.35645A3.36067,3.36067,0,0,1,82.04395,63.51563ZM70.82056,88.19891a42.81552,42.81552,0,0,1-16.39612,5.0639,36.89766,36.89766,0,0,1-7.96887-7.30731,5.58327,5.58327,0,0,0,1.82666-4.143,5.68919,5.68919,0,0,0-.05762-.787A72.68112,72.68112,0,0,0,72.38843,69.64209C73.071,77.11786,72.53784,83.51691,70.82056,88.19891ZM38.05566,82.53613a5.02392,5.02392,0,0,1-.05859-.72363,4.643,4.643,0,0,1,9.17163-1.02386l.00024.00531.001.00159a4.24788,4.24788,0,0,1,.1123,1.017A4.60448,4.60448,0,0,1,45.45117,85.501a4.63508,4.63508,0,0,1-7.39551-2.96484Zm1.25781-51.96338a4.64287,4.64287,0,1,1,4.44531,5.9873A4.62335,4.62335,0,0,1,39.11621,31.918,4.58424,4.58424,0,0,1,39.31348,30.57275ZM55.293,26.66064a4.3,4.3,0,0,0,2.02075-.52045,89.69,89.69,0,0,1,5.66187,10.24115.45685.45685,0,0,0,.02637.0708c.937,1.97443,1.84912,4.09637,2.72314,6.31647a84.48615,84.48615,0,0,0-7.355-4.79108,79.60236,79.60236,0,0,0-9.1958-4.56024,5.40467,5.40467,0,0,0-1.05347-5.03973c1.3031-1.17334,2.61646-2.24908,3.91626-3.208A4.33044,4.33044,0,0,0,55.293,26.66064ZM40.496,36.50092a5.59349,5.59349,0,0,0,8.33215-2.14386,78.6469,78.6469,0,0,1,9.041,4.48621,83.97373,83.97373,0,0,1,8.53467,5.66132c.20068.53241.40076,1.074.59033,1.62042a98.94752,98.94752,0,0,1,5.28772,22.3653A71.53061,71.53061,0,0,1,47.981,80.056a5.58555,5.58555,0,0,0-7.98657-3.20886,98.27239,98.27239,0,0,1-7.66846-15.90375,6.88953,6.88953,0,0,0,.54956-12.4295A70.2772,70.2772,0,0,1,40.496,36.50092ZM73.20386,67.78979A100.4379,100.4379,0,0,0,67.9375,45.79248c-.01343-.03845-.02832-.07623-.04187-.11469a68.02546,68.02546,0,0,1,11.2312,11.26794,4.28743,4.28743,0,0,0-.39209,6.01447A59.16941,59.16941,0,0,1,73.20386,67.78979ZM55.293,25.66064a3.35693,3.35693,0,1,1,3.35645-3.35693A3.36077,3.36077,0,0,1,55.293,25.66064Zm0-7.71387a4.3262,4.3262,0,0,0-1.73291.36389,35.6965,35.6965,0,0,1-2.73486-7.29114,33.83927,33.83927,0,0,1-.81226-4.51917,43.13559,43.13559,0,0,1,24.68042,7.6933,51.94349,51.94349,0,0,0-15.93481,5.4989A4.33788,4.33788,0,0,0,55.293,17.94678Zm-5.43652-6.68164a36.296,36.296,0,0,0,2.14673,6.08875c-.4397-.4964-.87158-.96625-1.302-1.41541C46.32349,11.37714,41.974,8.7099,38.08167,8.15753A43.33763,43.33763,0,0,1,49.00586,6.51465,34.71411,34.71411,0,0,0,49.85645,11.26514Zm-17.209-1.16748L32.651,10.096c.0116-.00421.02356-.0083.03455-.01349.65356-.28876,1.3313-.55267,2.0033-.81708l.01135-.00323c.0127-.00342.03223-.00928.05273-.01611,4.28809-1.00244,9.69629,1.62158,15.22656,7.38428.73987.77264,1.49219,1.62372,2.27771,2.5578A4.27661,4.27661,0,0,0,51.468,24.3465c-1.3429.98969-2.69971,2.10083-4.04517,3.31323a5.59,5.59,0,0,0-8.89221,2.17908,61.67168,61.67168,0,0,0-8.84509-1.59332,4.30668,4.30668,0,0,0-3.584-4.066C26.81445,17.1438,29.11108,12.15857,32.64746,10.09766ZM25.34863,25.08984H25.375a1.06009,1.06009,0,0,1,.12769.0094l.0061.00183.01733.00073.0022.00024a3.34452,3.34452,0,0,1,3.17676,3.34473,1.51247,1.51247,0,0,1-.00989.19409l-.00085.00269.00037.00323-.00134.01532a3.355,3.355,0,0,1-6.70215-.12549v-.08984A3.36077,3.36077,0,0,1,25.34863,25.08984ZM29.61157,29.243a60.6222,60.6222,0,0,1,8.62891,1.55481A5.52367,5.52367,0,0,0,39.72632,35.862,71.26923,71.26923,0,0,0,31.9574,48.11139a6.91984,6.91984,0,0,0-3.69495-.28308,84.28123,84.28123,0,0,1-2.303-15.08527A4.33238,4.33238,0,0,0,29.61157,29.243ZM28.02539,48.89063a5.46917,5.46917,0,0,1,1.57813-.22266A5.78619,5.78619,0,0,1,32,49.17822a5.93357,5.93357,0,1,1-3.97461-.2876ZM27.844,61.26886a6.90129,6.90129,0,0,0,1.75952.25507,6.79119,6.79119,0,0,0,1.7771-.25391,99.30177,99.30177,0,0,0,7.77319,16.12109,5.63985,5.63985,0,0,0-2.15674,4.42139c0,.11853.02.2334.02832.3512a82.51014,82.51014,0,0,1-12.47241.559A82.18822,82.18822,0,0,1,27.844,61.26886ZM23.5249,84.507c-.36816-.28217-.74243-.57648-1.12073-.887.37659.0224.7511.04858,1.1283.06531C23.52942,83.95813,23.5249,84.23071,23.5249,84.507Zm1.009.75848c-.00537-.23865-.00952-.47961-.00952-.71466,0-.27753.00488-.55328.00793-.82867.84265.02539,1.68884.043,2.53894.043A83.77982,83.77982,0,0,0,37.184,83.15442a5.57713,5.57713,0,0,0,8.46777,3.39966,40.16274,40.16274,0,0,0,7.18665,6.84149c-.908.06207-1.84009.10443-2.84521.10443A43.17588,43.17588,0,0,1,24.53394,85.26544ZM72.12134,87.436c1.5144-4.83038,1.939-11.16693,1.21252-18.48181a60.116,60.116,0,0,0,6.12732-5.30585,4.26425,4.26425,0,0,0,4.38916.46344,37.23535,37.23535,0,0,1,3.40894,8.34064A43.70065,43.70065,0,0,1,72.12134,87.436ZM87.943,71.24213a38.89225,38.89225,0,0,0-3.24011-7.657,4.32371,4.32371,0,0,0,.43091-6.49231,49.18144,49.18144,0,0,0,6.51855-11.87115c.31274-.824.585-1.61908.82813-2.38434a3.00285,3.00285,0,0,0,.32422.03278c.03931,0,.06616-.0094.10376-.0105a44.082,44.082,0,0,1,.59155,7.134A43.49885,43.49885,0,0,1,87.943,71.24213Zm3.56995-34.22668a3.07508,3.07508,0,0,0-1.75,2.43127c-.1543.00171-.30078.0069-.468.00641a41.18455,41.18455,0,0,1-25.458-8.69238.47.47,0,0,0-.07422-.07178,37.36316,37.36316,0,0,1-5.44678-5.25952,4.316,4.316,0,0,0,.95886-4.87854,50.86252,50.86252,0,0,1,16.56995-5.53741A43.7044,43.7044,0,0,1,91.51294,37.01544ZM29.26257,11.75684c-2.19934,2.746-3.61707,6.9325-4.15979,12.35785a4.33772,4.33772,0,0,0-4.0741,3.96167,35.11538,35.11538,0,0,0-9.66492,1.92035A43.65919,43.65919,0,0,1,29.26257,11.75684ZM10.71484,31.28839a33.36933,33.36933,0,0,1,10.343-2.211A4.3826,4.3826,0,0,0,24.959,32.75714a85.229,85.229,0,0,0,2.33923,15.33813,6.88587,6.88587,0,0,0-.40173,12.85242,83.1658,83.1658,0,0,0-3.343,21.73755c-.80957-.03638-1.61877-.0813-2.41992-.1402a43.552,43.552,0,0,1-10.4187-51.25665Z"/><path xmlns="http://www.w3.org/2000/svg" d="M29.60352,59.04932a4.35693,4.35693,0,1,0-4.35645-4.35693A4.36239,4.36239,0,0,0,29.60352,59.04932Zm0-7.71387a3.35693,3.35693,0,1,1-3.35645,3.35693A3.36077,3.36077,0,0,1,29.60352,51.33545Z"/></g><g id="SvgjsG2137" featureKey="nameFeature-0" transform="matrix(1.2840883021199303,0,0,1.2840883021199303,2.6266669877689828,175.68673119484322)" fill="#fff"><path d="M3.7166 12.004999999999999 l7.1658 0 l0 4.2246 l-7.246 0 l1.0963 0.80214 c-0.10695 4.7059 -0.10695 14.064 0 18.743 l6.1497 0 l0 4.2246 l-7.1658 0 c-1.4973 0 -2.6471 -1.1497 -2.6471 -2.6471 l0 -22.701 c0 -1.4973 1.1497 -2.6471 2.6471 -2.6471 z M15.294079679144385 35.8021 l4.3316 0 l0 -19.545 l-5.4011 0 l1.0695 0.82888 l0 18.717 z M23.288379679144384 14.678999999999998 l0 22.701 c0 1.4973 -1.1497 2.6471 -2.6471 2.6471 l-6.3636 0 c-1.4973 0 -2.6471 -1.1497 -2.6471 -2.6471 l0 -22.701 c0 -1.4171 1.1497 -2.6471 2.6471 -2.6471 l6.3636 0 c1.4973 0 2.6471 1.2299 2.6471 2.6471 z M28.60961443850267 23.824 l4.3048 0 l0 -7.6738 l-5.4011 0 l1.0963 0.82888 l0 6.8449 z M36.577914438502674 14.599 l0 10.802 c0 1.4973 -1.1497 2.6471 -2.6471 2.6471 l-0.50802 0 l3.1551 11.898 l-3.7968 0 l-3.1551 -11.898 l-2.1123 0 l1.0963 0.82888 l0 11.07 l-3.6898 0 l0 -23.797 l0 -3.3957 l-0.66845 -0.82888 l9.6791 0.026738 c1.4973 0 2.6471 1.1497 2.6471 2.6471 z M38.04808449197861 12.861 l-0.66845 -0.82888 l10.508 0 l0 4.2246 l-7.246 0 l1.0963 0.82888 l0 6.8182 l4.3316 0 l0 4.2513 l-5.4278 0 l1.0963 0.80214 l0 6.8449 l6.1497 0 l0 4.2246 l-9.8396 0 l0 -4.2246 l0 -7.6471 l0 -4.2513 l0 -11.043 z M57.32619304812834 11.952000000000002 l3.7701 0 l2.3262 18.93 l2.3262 -18.93 l3.6898 0 l-3.4225 27.995 l-5.1872 0 l-1.631 -13.235 l-1.6043 13.235 l-5.1872 0 l-3.3422 -27.193 l-0.66845 -0.80214 l4.2781 0 l2.3262 18.93 z M71.25664064171121 12.861 l-0.66845 -0.82888 l10.508 0 l0 4.2246 l-7.246 0 l1.0963 0.82888 l0 6.8182 l4.3316 0 l0 4.2513 l-5.4278 0 l1.0963 0.80214 l0 6.8449 l6.1497 0 l0 4.2246 l-9.8396 0 l0 -4.2246 l0 -7.6471 l0 -4.2513 l0 -11.043 z M86.31014919786095 23.824 l4.3048 0 l0 -7.6738 l-5.4011 0 l1.0963 0.82888 l0 6.8449 z M94.27844919786095 14.599 l0 10.802 c0 1.4973 -1.1497 2.6471 -2.6471 2.6471 l-0.50802 0 l3.1551 11.898 l-3.7968 0 l-3.1551 -11.898 l-2.1123 0 l1.0963 0.82888 l0 11.07 l-3.6898 0 l0 -23.797 l0 -3.3957 l-0.66845 -0.82888 l9.6791 0.026738 c1.4973 0 2.6471 1.1497 2.6471 2.6471 z M99.17114705882351 12.032 l3.1551 8.6364 l3.1283 -8.6364 l3.9305 0 l-5.107 13.984 l5.107 14.011 l-3.9305 0 l-3.1283 -8.6364 l-3.1551 8.6364 l-3.9037 0 l5.107 -14.011 l-4.8128 -13.155 l-0.66845 -0.82888 l4.2781 0 z M128.52902139037428 14.678999999999998 l0 5.7754 l-3.6631 0 l0 -4.2246 l-5.4011 0 l1.0695 0.82888 l0 3.3957 l7.9947 9.8128 l0 4.2246 l0 2.8877 c0 1.4171 -1.1497 2.6471 -2.6471 2.6471 l-6.3636 0 c-1.4973 0 -2.6471 -1.2299 -2.6471 -2.6471 l0 -5.9626 l3.6631 0 l0 4.385 l4.3316 0 l0 -4.2246 l-7.9947 -9.8128 l0 -7.0856 c0 -1.4973 1.1497 -2.6471 2.6471 -2.6471 l6.3636 0 c1.4973 0 2.6471 1.1497 2.6471 2.6471 z M133.50263582887698 35.8021 l4.3316 0 l0 -19.545 l-5.4011 0 l1.0695 0.82888 l0 18.717 z M141.49693582887699 14.678999999999998 l0 22.701 c0 1.4973 -1.1497 2.6471 -2.6471 2.6471 l-6.3636 0 c-1.4973 0 -2.6471 -1.1497 -2.6471 -2.6471 l0 -22.701 c0 -1.4171 1.1497 -2.6471 2.6471 -2.6471 l6.3636 0 c1.4973 0 2.6471 1.2299 2.6471 2.6471 z M142.45988823529407 12.032 l4.3583 0 l0 23.77 l6.1497 0 l0 4.2246 l-9.8396 0 l0 -0.026738 l0 -4.1979 l0 -22.968 z M157.21920213903738 35.8021 l4.3048 0 l0 -23.797 l3.6898 0 l0 25.348 c0 1.4973 -1.2299 2.6471 -2.6471 2.6471 l-6.3636 0.026738 c-1.4973 0 -2.6471 -1.1765 -2.6471 -2.6738 l0 -24.519 l-0.026738 0 l-0.66845 -0.82888 l4.3583 0 l0 23.797 z M170.13370748663095 16.203 l-3.984 0 l0 -4.2513 l11.658 0 l0 4.2513 l-5.0802 0 l1.0963 0.80214 l0 22.968 l-3.6898 0 l0 -23.77 z M183.02136524064167 39.946524 l-3.6898 0 l0 -27.166 l-0.66845 -0.82888 l4.3583 0 l0 27.995 z M188.28873208556146 35.8021 l4.3316 0 l0 -19.545 l-5.4011 0 l1.0695 0.82888 l0 18.717 z M196.28303208556144 14.678999999999998 l0 22.701 c0 1.4973 -1.1497 2.6471 -2.6471 2.6471 l-6.3636 0 c-1.4973 0 -2.6471 -1.1497 -2.6471 -2.6471 l0 -22.701 c0 -1.4171 1.1497 -2.6471 2.6471 -2.6471 l6.3636 0 c1.4973 0 2.6471 1.2299 2.6471 2.6471 z M197.21925294117642 12.004999999999999 l5.2406 0 l3.4225 15.267 l0 -15.241 l3.6631 0 l0 27.968 l-4.5722 0 l-3.3957 -15.187 l0 15.214 l-3.6898 0 l0 -27.193 z M222.51297860962558 14.678999999999998 l0 5.7754 l-3.6631 0 l0 -4.2246 l-5.4011 0 l1.0695 0.82888 l0 3.3957 l7.9947 9.8128 l0 4.2246 l0 2.8877 c0 1.4171 -1.1497 2.6471 -2.6471 2.6471 l-6.3636 0 c-1.4973 0 -2.6471 -1.2299 -2.6471 -2.6471 l0 -5.9626 l3.6631 0 l0 4.385 l4.3316 0 l0 -4.2246 l-7.9947 -9.8128 l0 -7.0856 c0 -1.4973 1.1497 -2.6471 2.6471 -2.6471 l6.3636 0 c1.4973 0 2.6471 1.1497 2.6471 2.6471 z M230.48124331550792 12.780999999999999 l-0.66845 -0.82888 l10.508 0 l0 4.2246 l-7.246 0 l1.0963 0.82888 l0 6.8449 l4.3048 0 l0 4.2246 l-5.4011 0 l1.0963 0.82888 l0 11.043 l-3.6898 0 l0 -27.166 z M245.1069759358288 40.080214 l-3.6631 0 l0 -4.0374 l3.6631 0 l0 4.0374 z M246.55080326203202 35.8289 l5.9893 -19.572 l-5.9893 0 l0 -4.2246 l9.8396 0 l0 4.1979 l0 0.026738 l-5.9893 19.545 l5.9893 0 l0 4.2246 l-9.8396 0 l0 -4.1979 z M261.4973502673796 40.080214 l-3.6631 0 l0 -4.0374 l3.6631 0 l0 4.0374 z M263.79674759358284 12.861 l-0.66845 -0.82888 l10.508 0 l0 4.2246 l-7.246 0 l1.0963 0.82888 l0 6.8182 l4.3316 0 l0 4.2513 l-5.4278 0 l1.0963 0.80214 l0 6.8449 l6.1497 0 l0 4.2246 l-9.8396 0 l0 -4.2246 l0 -7.6471 l0 -4.2513 l0 -11.043 z"/></g><g id="SvgjsG2138" featureKey="sloganFeature-0" transform="matrix(0.5107131851709354,0,0,0.5107131851709354,38.489286814829065,243.3637221800294)" fill="#fff"><path d="M1 20 l0 -11.98 c0 -0.5 0.1 -0.6 0.26 -0.6 l8.76 0 c0.14 0 0.26 0.1 0.26 0.24 l0 2.26 c0 0.14 -0.12 0.26 -0.26 0.26 l-5.92 0 l0 2.08 l3.74 0 c0.14 0 0.26 0.12 0.26 0.26 l0 2.24 c0 0.14 -0.12 0.26 -0.26 0.26 l-3.74 0 l0 2.14 l5.9 0 c0.14 0 0.26 0.12 0.26 0.26 l0 2.24 c0 0.14 -0.12 0.26 -0.26 0.26 l-8.74 0 c-0.16 0 -0.26 -0.12 -0.26 0.08 z M15.119499999999999 20 c-0.14 0 -0.26 -0.12 -0.26 -0.26 l0 -11.98 c0 -0.14 0.12 -0.26 0.26 -0.26 l2.88 0 c0.1 0 0.2 0.06 0.24 0.14 l3 7.4 l2.98 -7.4 c0.04 -0.08 0.14 -0.14 0.24 -0.14 l2.88 0 c0.14 0 0.26 0.12 0.26 0.26 l0 11.98 c0 0.14 -0.12 0.26 -0.26 0.26 l-2.34 0 c-0.14 0 -0.26 -0.12 -0.26 -0.26 l0 -6.44 l-2.44 6.2 c-0.04 0.08 -0.14 0.14 -0.22 0.14 l-1.68 0 c-0.1 0 -0.2 -0.06 -0.24 -0.14 l-2.46 -6.2 l0 6.44 c0 0.14 -0.12 0.26 -0.26 0.26 l-2.32 0 z M32.419000000000004 20 c-0.14 0 -0.24 -0.12 -0.24 -0.26 l0 -11.98 c0 -0.14 0.1 -0.26 0.24 -0.26 l4.9 0 c1.52 0 2.72 0.38 3.56 1.16 c1.24 1.12 1.66 3.24 1.06 4.8 c-0.22 0.56 -0.6 1.08 -1.08 1.46 c-1.62 1.26 -3.64 1.14 -5.58 1.14 l0 3.68 c0 0.14 -0.12 0.26 -0.26 0.26 l-2.6 0 z M35.279 13.280000000000001 c0 0 2.52 0.28 3.4 -0.3 c0.34 -0.22 0.54 -0.76 0.54 -1.16 c-0.02 -0.44 -0.24 -0.9 -0.6 -1.18 c-0.38 -0.32 -1.32 -0.42 -1.8 -0.42 l-1.54 0.04 l0 3.02 z M53.2585 20 c-1.2 0 -2.3 -0.28 -3.26 -0.84 c-0.98 -0.56 -1.76 -1.36 -2.34 -2.32 c-0.56 -0.98 -0.84 -2.1 -0.84 -3.3 c0 -1.18 0.28 -2.28 0.84 -3.26 c0.58 -0.98 1.34 -1.76 2.32 -2.32 s2.08 -0.84 3.28 -0.84 c1.18 0 2.28 0.28 3.26 0.84 s1.76 1.34 2.32 2.32 c0.58 0.98 0.86 2.08 0.86 3.26 c0 1.2 -0.28 2.3 -0.86 3.28 c-0.56 0.98 -1.34 1.76 -2.32 2.34 c-0.98 0.56 -2.08 0.84 -3.26 0.84 z M53.298500000000004 17.12 c0.58 0 1.12 -0.16 1.6 -0.46 c0.5 -0.32 0.9 -0.74 1.18 -1.3 c0.3 -0.54 0.44 -1.16 0.44 -1.82 c0 -0.64 -0.14 -1.26 -0.44 -1.8 c-0.28 -0.54 -0.68 -0.96 -1.18 -1.28 c-0.48 -0.3 -1.02 -0.46 -1.6 -0.46 c-0.6 0 -1.14 0.16 -1.64 0.46 c-0.52 0.32 -0.92 0.74 -1.22 1.28 c-0.3 0.56 -0.44 1.16 -0.44 1.8 c0 0.66 0.14 1.28 0.44 1.82 c0.32 0.54 0.72 0.98 1.22 1.28 c0.5 0.32 1.04 0.48 1.64 0.48 z M67.418 20 c-0.12 0 -0.22 -0.08 -0.24 -0.18 l-3.88 -11.98 c-0.04 -0.08 -0.02 -0.16 0.04 -0.24 c0.04 -0.06 0.12 -0.1 0.2 -0.1 l2.8 0 c0.1 0 0.22 0.08 0.24 0.18 l2.08 7.22 l1.9 -6.86 c0.02 -0.12 0.12 -0.2 0.24 -0.2 l2.54 0 c0.12 0 0.22 0.08 0.26 0.2 l1.92 6.86 l2.04 -7.22 c0.04 -0.1 0.14 -0.18 0.26 -0.18 l2.68 0 c0.08 0 0.16 0.04 0.2 0.1 c0.06 0.08 0.06 0.16 0.04 0.24 l-3.9 11.98 c-0.04 0.1 -0.12 0.18 -0.24 0.18 l-2.34 0 c-0.12 0 -0.22 -0.08 -0.24 -0.18 l-2 -7.1 l-2.04 7.1 c-0.02 0.1 -0.12 0.18 -0.24 0.18 l-2.32 0 z M85.1375 20 l0 -11.98 c0 -0.5 0.1 -0.6 0.26 -0.6 l8.76 0 c0.14 0 0.26 0.1 0.26 0.24 l0 2.26 c0 0.14 -0.12 0.26 -0.26 0.26 l-5.92 0 l0 2.08 l3.74 0 c0.14 0 0.26 0.12 0.26 0.26 l0 2.24 c0 0.14 -0.12 0.26 -0.26 0.26 l-3.74 0 l0 2.14 l5.9 0 c0.14 0 0.26 0.12 0.26 0.26 l0 2.24 c0 0.14 -0.12 0.26 -0.26 0.26 l-8.74 0 c-0.16 0 -0.26 -0.12 -0.26 0.08 z M99.257 20 c-0.16 0 -0.26 -0.12 -0.26 -0.26 l0 -11.98 c0 -0.14 0.1 -0.26 0.26 -0.26 l4.88 0 c1.52 0 2.72 0.38 3.56 1.16 c1.24 1.12 1.66 3.24 1.06 4.8 c-0.22 0.56 -0.6 1.08 -1.08 1.46 c-0.28 0.22 -0.58 0.38 -0.88 0.54 c0.86 1.36 2.16 4.12 2.16 4.12 c0.02 0.04 0.06 0.1 0.06 0.16 c0 0.14 -0.12 0.26 -0.26 0.26 l-2.96 0 c-0.08 0 -0.18 -0.06 -0.22 -0.14 l-1.74 -3.82 c-0.62 0.04 -1.1 0.02 -1.74 0.02 l0 3.68 c0 0.14 -0.12 0.26 -0.26 0.26 l-2.58 0 z M102.097 13.280000000000001 c0 0 2.52 0.28 3.4 -0.3 c0.34 -0.22 0.54 -0.76 0.54 -1.16 c-0.02 -0.44 -0.24 -0.9 -0.6 -1.18 c-0.38 -0.32 -1.32 -0.42 -1.8 -0.42 l-1.54 0.04 l0 3.02 z M113.87650000000001 20 c-0.14 0 -0.26 -0.12 -0.26 -0.26 l0 -11.98 c0 -0.14 0.12 -0.26 0.26 -0.26 l2.6 0 c0.14 0 0.26 0.12 0.26 0.26 l0 11.98 c0 0.14 -0.12 0.26 -0.26 0.26 l-2.6 0 z M121.57600000000001 20 c-0.14 0 -0.26 -0.12 -0.26 -0.26 l0 -11.98 c0 -0.14 0.12 -0.26 0.26 -0.26 l2.36 0 c0.08 0 0.16 0.04 0.22 0.1 l4.6 7.1 l0 -6.94 c0 -0.14 0.12 -0.26 0.26 -0.26 l2.46 0 c0.14 0 0.26 0.12 0.26 0.26 l0 11.98 c0 0.14 -0.12 0.26 -0.26 0.26 l-2.36 0 c-0.08 0 -0.16 -0.04 -0.22 -0.1 l-4.58 -7.06 l0 6.9 c0 0.14 -0.12 0.26 -0.26 0.26 l-2.48 0 z M142.6955 20 c-1.18 0 -2.28 -0.28 -3.24 -0.84 c-0.98 -0.58 -1.74 -1.36 -2.3 -2.32 c-0.56 -0.98 -0.84 -2.1 -0.84 -3.3 s0.28 -2.3 0.86 -3.26 c0.56 -0.98 1.36 -1.76 2.34 -2.32 c1 -0.56 2.12 -0.84 3.34 -0.84 c0.88 0 1.74 0.16 2.6 0.5 c0.84 0.32 1.58 0.78 2.18 1.36 c0.1 0.08 0.12 0.22 0.04 0.34 l-1.46 1.92 c-0.06 0.06 -0.12 0.1 -0.2 0.12 c-0.06 0 -0.14 -0.04 -0.2 -0.08 c-0.4 -0.4 -0.86 -0.72 -1.4 -0.94 c-0.52 -0.22 -1.04 -0.34 -1.56 -0.34 c-0.62 0 -1.2 0.16 -1.7 0.46 c-0.52 0.32 -0.92 0.74 -1.22 1.28 s-0.44 1.14 -0.44 1.8 s0.14 1.28 0.44 1.82 s0.72 0.98 1.22 1.3 c0.52 0.3 1.1 0.46 1.7 0.46 c0.32 0 0.66 -0.06 1.04 -0.16 c0.32 -0.1 0.66 -0.24 0.96 -0.4 l0 -0.92 l-1.38 0 c-0.08 0 -0.14 -0.02 -0.18 -0.08 c-0.06 -0.04 -0.08 -0.1 -0.08 -0.18 l0.02 -2.24 c0 -0.14 0.12 -0.26 0.26 -0.26 l3.88 0 c0.14 0 0.26 0.12 0.26 0.26 l0 5.02 c0 0.08 -0.04 0.16 -0.12 0.22 c-0.62 0.48 -1.38 0.88 -2.26 1.16 c-0.88 0.3 -1.74 0.46 -2.56 0.46 z M160.5345 20 c-0.14 0 -0.26 -0.12 -0.26 -0.26 l0 -11.98 c0 -0.14 0.12 -0.26 0.26 -0.26 l2.6 0 c0.14 0 0.26 0.12 0.26 0.26 l0 11.98 c0 0.14 -0.12 0.26 -0.26 0.26 l-2.6 0 z M168.234 20 c-0.14 0 -0.26 -0.12 -0.26 -0.26 l0 -11.98 c0 -0.14 0.12 -0.26 0.26 -0.26 l2.36 0 c0.08 0 0.16 0.04 0.22 0.1 l4.6 7.1 l0 -6.94 c0 -0.14 0.12 -0.26 0.26 -0.26 l2.46 0 c0.14 0 0.26 0.12 0.26 0.26 l0 11.98 c0 0.14 -0.12 0.26 -0.26 0.26 l-2.36 0 c-0.08 0 -0.16 -0.04 -0.22 -0.1 l-4.58 -7.06 l0 6.9 c0 0.14 -0.12 0.26 -0.26 0.26 l-2.48 0 z M183.23350000000002 20 c-0.14 0 -0.26 -0.12 -0.26 -0.26 l0 -11.98 c0 -0.14 0.12 -0.26 0.26 -0.26 l2.36 0 c0.08 0 0.16 0.04 0.22 0.1 l4.6 7.1 l0 -6.94 c0 -0.14 0.12 -0.26 0.26 -0.26 l2.46 0 c0.14 0 0.26 0.12 0.26 0.26 l0 11.98 c0 0.14 -0.12 0.26 -0.26 0.26 l-2.36 0 c-0.08 0 -0.16 -0.04 -0.22 -0.1 l-4.58 -7.06 l0 6.9 c0 0.14 -0.12 0.26 -0.26 0.26 l-2.48 0 z M204.41300000000004 20 c-1.2 0 -2.3 -0.28 -3.26 -0.84 c-0.98 -0.56 -1.76 -1.36 -2.34 -2.32 c-0.56 -0.98 -0.84 -2.1 -0.84 -3.3 c0 -1.18 0.28 -2.28 0.84 -3.26 c0.58 -0.98 1.34 -1.76 2.32 -2.32 s2.08 -0.84 3.28 -0.84 c1.18 0 2.28 0.28 3.26 0.84 s1.76 1.34 2.32 2.32 c0.58 0.98 0.86 2.08 0.86 3.26 c0 1.2 -0.28 2.3 -0.86 3.28 c-0.56 0.98 -1.34 1.76 -2.32 2.34 c-0.98 0.56 -2.08 0.84 -3.26 0.84 z M204.45300000000003 17.12 c0.58 0 1.12 -0.16 1.6 -0.46 c0.5 -0.32 0.9 -0.74 1.18 -1.3 c0.3 -0.54 0.44 -1.16 0.44 -1.82 c0 -0.64 -0.14 -1.26 -0.44 -1.8 c-0.28 -0.54 -0.68 -0.96 -1.18 -1.28 c-0.48 -0.3 -1.02 -0.46 -1.6 -0.46 c-0.6 0 -1.14 0.16 -1.64 0.46 c-0.52 0.32 -0.92 0.74 -1.22 1.28 c-0.3 0.56 -0.44 1.16 -0.44 1.8 c0 0.66 0.14 1.28 0.44 1.82 c0.32 0.54 0.72 0.98 1.22 1.28 c0.5 0.32 1.04 0.48 1.64 0.48 z M219.09250000000003 20 c-0.1 0 -0.2 -0.06 -0.24 -0.16 l-4 -12 c-0.04 -0.08 -0.02 -0.16 0.02 -0.24 c0.06 -0.06 0.14 -0.1 0.22 -0.1 l2.8 0 c0.1 0 0.2 0.06 0.24 0.18 l2.38 7.82 l2.4 -7.82 c0.04 -0.12 0.14 -0.18 0.24 -0.18 l2.68 0 c0.08 0 0.16 0.04 0.22 0.1 c0.04 0.08 0.06 0.16 0.02 0.24 l-4.06 12 c-0.04 0.1 -0.12 0.16 -0.24 0.16 l-2.68 0 z M228.33200000000002 20 c-0.08 0 -0.16 -0.04 -0.2 -0.12 c-0.06 -0.06 -0.06 -0.16 -0.04 -0.24 l4.66 -11.98 c0.04 -0.1 0.14 -0.16 0.24 -0.16 l2.68 0 c0.1 0 0.2 0.06 0.24 0.16 l4.58 11.98 c0.02 0.08 0.02 0.16 -0.04 0.24 c-0.04 0.08 -0.12 0.12 -0.2 0.12 l-2.78 0 c-0.1 0 -0.2 -0.06 -0.24 -0.16 l-0.74 -1.84 l-4.5 0.02 l-0.74 1.82 c-0.04 0.1 -0.14 0.16 -0.24 0.16 l-2.68 0 z M232.81200000000004 15.5 l2.88 0 l-1.44 -4.24 z M246.93150000000006 20 c-0.14 0 -0.24 -0.12 -0.24 -0.26 l0 -9.44 l-2.74 0 c-0.14 0 -0.26 -0.1 -0.26 -0.24 l0 -2.3 c0 -0.14 0.12 -0.26 0.26 -0.26 l8.58 0 c0.16 0 0.26 0.12 0.26 0.26 l0 2.3 c0 0.14 -0.1 0.24 -0.26 0.24 l-2.74 0 l0 9.44 c0 0.14 -0.12 0.26 -0.26 0.26 l-2.6 0 z M257.63100000000003 20 c-0.14 0 -0.26 -0.12 -0.26 -0.26 l0 -11.98 c0 -0.14 0.12 -0.26 0.26 -0.26 l2.6 0 c0.14 0 0.26 0.12 0.26 0.26 l0 11.98 c0 0.14 -0.12 0.26 -0.26 0.26 l-2.6 0 z M271.51050000000004 20 c-1.2 0 -2.3 -0.28 -3.26 -0.84 c-0.98 -0.56 -1.76 -1.36 -2.34 -2.32 c-0.56 -0.98 -0.84 -2.1 -0.84 -3.3 c0 -1.18 0.28 -2.28 0.84 -3.26 c0.58 -0.98 1.34 -1.76 2.32 -2.32 s2.08 -0.84 3.28 -0.84 c1.18 0 2.28 0.28 3.26 0.84 s1.76 1.34 2.32 2.32 c0.58 0.98 0.86 2.08 0.86 3.26 c0 1.2 -0.28 2.3 -0.86 3.28 c-0.56 0.98 -1.34 1.76 -2.32 2.34 c-0.98 0.56 -2.08 0.84 -3.26 0.84 z M271.55050000000006 17.12 c0.58 0 1.12 -0.16 1.6 -0.46 c0.5 -0.32 0.9 -0.74 1.18 -1.3 c0.3 -0.54 0.44 -1.16 0.44 -1.82 c0 -0.64 -0.14 -1.26 -0.44 -1.8 c-0.28 -0.54 -0.68 -0.96 -1.18 -1.28 c-0.48 -0.3 -1.02 -0.46 -1.6 -0.46 c-0.6 0 -1.14 0.16 -1.64 0.46 c-0.52 0.32 -0.92 0.74 -1.22 1.28 c-0.3 0.56 -0.44 1.16 -0.44 1.8 c0 0.66 0.14 1.28 0.44 1.82 c0.32 0.54 0.72 0.98 1.22 1.28 c0.5 0.32 1.04 0.48 1.64 0.48 z M282.79 20 c-0.14 0 -0.26 -0.12 -0.26 -0.26 l0 -11.98 c0 -0.14 0.12 -0.26 0.26 -0.26 l2.36 0 c0.08 0 0.16 0.04 0.22 0.1 l4.6 7.1 l0 -6.94 c0 -0.14 0.12 -0.26 0.26 -0.26 l2.46 0 c0.14 0 0.26 0.12 0.26 0.26 l0 11.98 c0 0.14 -0.12 0.26 -0.26 0.26 l-2.36 0 c-0.08 0 -0.16 -0.04 -0.22 -0.1 l-4.58 -7.06 l0 6.9 c0 0.14 -0.12 0.26 -0.26 0.26 l-2.48 0 z M298.4895 21.82 c-0.08 0 -0.14 -0.04 -0.2 -0.1 c-0.04 -0.06 -0.04 -0.14 -0.02 -0.2 l0.34 -1.64 c-0.66 -0.04 -1.08 -0.72 -1.08 -1.22 c0 -0.42 0.14 -0.76 0.4 -1.04 c0.26 -0.26 0.6 -0.4 0.98 -0.4 s0.7 0.12 0.96 0.38 s0.4 0.62 0.4 1.06 c0 0.18 -0.04 0.36 -0.1 0.54 c-0.04 0.14 -0.12 0.32 -0.22 0.52 l-1.06 1.98 c-0.06 0.08 -0.12 0.12 -0.22 0.12 l-0.18 0 z M318.1685 20.12 c-0.96 0 -1.92 -0.18 -2.84 -0.54 c-0.92 -0.34 -1.74 -0.84 -2.42 -1.44 c-0.08 -0.08 -0.1 -0.2 -0.06 -0.3 l0.7 -2.38 c0.04 -0.08 0.1 -0.14 0.18 -0.14 c0.08 -0.02 0.16 0 0.22 0.06 c1.06 1 2.26 1.9 3.76 1.98 c0.4 0.02 0.84 0.04 1.22 -0.08 c1.18 -0.38 0.68 -1.58 -0.2 -1.94 c-0.3 -0.12 -0.72 -0.26 -1.26 -0.42 c-0.8 -0.22 -1.46 -0.46 -1.96 -0.7 c-0.54 -0.24 -1 -0.62 -1.4 -1.12 c-0.38 -0.52 -0.58 -1.2 -0.58 -2.02 c0 -0.78 0.2 -1.46 0.6 -2.04 s0.96 -1.04 1.66 -1.34 s1.52 -0.46 2.44 -0.46 c0.82 0 1.62 0.12 2.42 0.38 c0.78 0.24 1.48 0.58 2.1 0.98 c0.1 0.08 0.14 0.2 0.08 0.32 l-0.66 2.24 c-0.02 0.08 -0.08 0.12 -0.16 0.14 c-0.06 0.02 -0.14 0.02 -0.2 -0.02 c-0.9 -0.56 -1.8 -1.24 -2.86 -1.38 c-0.7 -0.1 -1.76 -0.06 -2 0.78 c-0.3 1.08 1.28 1.36 2 1.58 c0.8 0.24 1.46 0.48 1.98 0.72 c0.54 0.26 1.02 0.66 1.4 1.16 c0.4 0.52 0.6 1.22 0.6 2.06 c0 0.82 -0.22 1.52 -0.64 2.12 c-0.4 0.6 -0.98 1.04 -1.7 1.36 c-0.72 0.28 -1.52 0.44 -2.42 0.44 z M327.76800000000003 20 c-0.14 0 -0.26 -0.12 -0.26 -0.26 l0 -11.98 c0 -0.14 0.12 -0.26 0.26 -0.26 l2.6 0 c0.14 0 0.26 0.12 0.26 0.26 l0 4.92 l4.52 0 l0 -4.92 c0 -0.14 0.12 -0.26 0.26 -0.26 l2.6 0 c0.14 0 0.26 0.12 0.26 0.26 l0 11.98 c0 0.14 -0.12 0.26 -0.26 0.26 l-2.6 0 c-0.14 0 -0.26 -0.12 -0.26 -0.26 l0 -4.3 l-4.52 0 l0 4.3 c0 0.14 -0.12 0.26 -0.26 0.26 l-2.6 0 z M343.1075 20 c-0.08 0 -0.16 -0.04 -0.2 -0.12 c-0.06 -0.06 -0.06 -0.16 -0.04 -0.24 l4.66 -11.98 c0.04 -0.1 0.14 -0.16 0.24 -0.16 l2.68 0 c0.1 0 0.2 0.06 0.24 0.16 l4.58 11.98 c0.02 0.08 0.02 0.16 -0.04 0.24 c-0.04 0.08 -0.12 0.12 -0.2 0.12 l-2.78 0 c-0.1 0 -0.2 -0.06 -0.24 -0.16 l-0.74 -1.84 l-4.5 0.02 l-0.74 1.82 c-0.04 0.1 -0.14 0.16 -0.24 0.16 l-2.68 0 z M347.58750000000003 15.5 l2.88 0 l-1.44 -4.24 z M359.90700000000004 20 c-0.14 0 -0.24 -0.12 -0.24 -0.26 l0 -11.98 c0 -0.14 0.1 -0.26 0.24 -0.26 l4.9 0 c1.52 0 2.72 0.38 3.56 1.16 c1.24 1.12 1.66 3.24 1.06 4.8 c-0.22 0.56 -0.6 1.08 -1.08 1.46 c-1.62 1.26 -3.64 1.14 -5.58 1.14 l0 3.68 c0 0.14 -0.12 0.26 -0.26 0.26 l-2.6 0 z M362.76700000000005 13.280000000000001 c0 0 2.52 0.28 3.4 -0.3 c0.34 -0.22 0.54 -0.76 0.54 -1.16 c-0.02 -0.44 -0.24 -0.9 -0.6 -1.18 c-0.38 -0.32 -1.32 -0.42 -1.8 -0.42 l-1.54 0.04 l0 3.02 z M374.5665 20 c-0.14 0 -0.26 -0.12 -0.26 -0.26 l0 -11.98 c0 -0.14 0.12 -0.26 0.26 -0.26 l2.6 0 c0.14 0 0.26 0.12 0.26 0.26 l0 11.98 c0 0.14 -0.12 0.26 -0.26 0.26 l-2.6 0 z M382.266 20 c-0.14 0 -0.26 -0.12 -0.26 -0.26 l0 -11.98 c0 -0.14 0.12 -0.26 0.26 -0.26 l2.36 0 c0.08 0 0.16 0.04 0.22 0.1 l4.6 7.1 l0 -6.94 c0 -0.14 0.12 -0.26 0.26 -0.26 l2.46 0 c0.14 0 0.26 0.12 0.26 0.26 l0 11.98 c0 0.14 -0.12 0.26 -0.26 0.26 l-2.36 0 c-0.08 0 -0.16 -0.04 -0.22 -0.1 l-4.58 -7.06 l0 6.9 c0 0.14 -0.12 0.26 -0.26 0.26 l-2.48 0 z M403.38550000000004 20 c-1.18 0 -2.28 -0.28 -3.24 -0.84 c-0.98 -0.58 -1.74 -1.36 -2.3 -2.32 c-0.56 -0.98 -0.84 -2.1 -0.84 -3.3 s0.28 -2.3 0.86 -3.26 c0.56 -0.98 1.36 -1.76 2.34 -2.32 c1 -0.56 2.12 -0.84 3.34 -0.84 c0.88 0 1.74 0.16 2.6 0.5 c0.84 0.32 1.58 0.78 2.18 1.36 c0.1 0.08 0.12 0.22 0.04 0.34 l-1.46 1.92 c-0.06 0.06 -0.12 0.1 -0.2 0.12 c-0.06 0 -0.14 -0.04 -0.2 -0.08 c-0.4 -0.4 -0.86 -0.72 -1.4 -0.94 c-0.52 -0.22 -1.04 -0.34 -1.56 -0.34 c-0.62 0 -1.2 0.16 -1.7 0.46 c-0.52 0.32 -0.92 0.74 -1.22 1.28 s-0.44 1.14 -0.44 1.8 s0.14 1.28 0.44 1.82 s0.72 0.98 1.22 1.3 c0.52 0.3 1.1 0.46 1.7 0.46 c0.32 0 0.66 -0.06 1.04 -0.16 c0.32 -0.1 0.66 -0.24 0.96 -0.4 l0 -0.92 l-1.38 0 c-0.08 0 -0.14 -0.02 -0.18 -0.08 c-0.06 -0.04 -0.08 -0.1 -0.08 -0.18 l0.02 -2.24 c0 -0.14 0.12 -0.26 0.26 -0.26 l3.88 0 c0.14 0 0.26 0.12 0.26 0.26 l0 5.02 c0 0.08 -0.04 0.16 -0.12 0.22 c-0.62 0.48 -1.38 0.88 -2.26 1.16 c-0.88 0.3 -1.74 0.46 -2.56 0.46 z M424.2045 20 c-0.14 0 -0.24 -0.12 -0.24 -0.26 l0 -9.44 l-2.74 0 c-0.14 0 -0.26 -0.1 -0.26 -0.24 l0 -2.3 c0 -0.14 0.12 -0.26 0.26 -0.26 l8.58 0 c0.16 0 0.26 0.12 0.26 0.26 l0 2.3 c0 0.14 -0.1 0.24 -0.26 0.24 l-2.74 0 l0 9.44 c0 0.14 -0.12 0.26 -0.26 0.26 l-2.6 0 z M440.284 20 c-1.2 0 -2.3 -0.28 -3.26 -0.84 c-0.98 -0.56 -1.76 -1.36 -2.34 -2.32 c-0.56 -0.98 -0.84 -2.1 -0.84 -3.3 c0 -1.18 0.28 -2.28 0.84 -3.26 c0.58 -0.98 1.34 -1.76 2.32 -2.32 s2.08 -0.84 3.28 -0.84 c1.18 0 2.28 0.28 3.26 0.84 s1.76 1.34 2.32 2.32 c0.58 0.98 0.86 2.08 0.86 3.26 c0 1.2 -0.28 2.3 -0.86 3.28 c-0.56 0.98 -1.34 1.76 -2.32 2.34 c-0.98 0.56 -2.08 0.84 -3.26 0.84 z M440.324 17.12 c0.58 0 1.12 -0.16 1.6 -0.46 c0.5 -0.32 0.9 -0.74 1.18 -1.3 c0.3 -0.54 0.44 -1.16 0.44 -1.82 c0 -0.64 -0.14 -1.26 -0.44 -1.8 c-0.28 -0.54 -0.68 -0.96 -1.18 -1.28 c-0.48 -0.3 -1.02 -0.46 -1.6 -0.46 c-0.6 0 -1.14 0.16 -1.64 0.46 c-0.52 0.32 -0.92 0.74 -1.22 1.28 c-0.3 0.56 -0.44 1.16 -0.44 1.8 c0 0.66 0.14 1.28 0.44 1.82 c0.32 0.54 0.72 0.98 1.22 1.28 c0.5 0.32 1.04 0.48 1.64 0.48 z M451.3635 20 c-0.14 0 -0.26 -0.12 -0.26 -0.26 l0 -11.98 c0 -0.14 0.12 -0.26 0.26 -0.26 l2.88 0 c0.1 0 0.2 0.06 0.24 0.14 l3 7.4 l2.98 -7.4 c0.04 -0.08 0.14 -0.14 0.24 -0.14 l2.88 0 c0.14 0 0.26 0.12 0.26 0.26 l0 11.98 c0 0.14 -0.12 0.26 -0.26 0.26 l-2.34 0 c-0.14 0 -0.26 -0.12 -0.26 -0.26 l0 -6.44 l-2.44 6.2 c-0.04 0.08 -0.14 0.14 -0.22 0.14 l-1.68 0 c-0.1 0 -0.2 -0.06 -0.24 -0.14 l-2.46 -6.2 l0 6.44 c0 0.14 -0.12 0.26 -0.26 0.26 l-2.32 0 z M474.663 20 c-1.2 0 -2.3 -0.28 -3.26 -0.84 c-0.98 -0.56 -1.76 -1.36 -2.34 -2.32 c-0.56 -0.98 -0.84 -2.1 -0.84 -3.3 c0 -1.18 0.28 -2.28 0.84 -3.26 c0.58 -0.98 1.34 -1.76 2.32 -2.32 s2.08 -0.84 3.28 -0.84 c1.18 0 2.28 0.28 3.26 0.84 s1.76 1.34 2.32 2.32 c0.58 0.98 0.86 2.08 0.86 3.26 c0 1.2 -0.28 2.3 -0.86 3.28 c-0.56 0.98 -1.34 1.76 -2.32 2.34 c-0.98 0.56 -2.08 0.84 -3.26 0.84 z M474.70300000000003 17.12 c0.58 0 1.12 -0.16 1.6 -0.46 c0.5 -0.32 0.9 -0.74 1.18 -1.3 c0.3 -0.54 0.44 -1.16 0.44 -1.82 c0 -0.64 -0.14 -1.26 -0.44 -1.8 c-0.28 -0.54 -0.68 -0.96 -1.18 -1.28 c-0.48 -0.3 -1.02 -0.46 -1.6 -0.46 c-0.6 0 -1.14 0.16 -1.64 0.46 c-0.52 0.32 -0.92 0.74 -1.22 1.28 c-0.3 0.56 -0.44 1.16 -0.44 1.8 c0 0.66 0.14 1.28 0.44 1.82 c0.32 0.54 0.72 0.98 1.22 1.28 c0.5 0.32 1.04 0.48 1.64 0.48 z M486.3425 20 c-0.16 0 -0.26 -0.12 -0.26 -0.26 l0 -11.98 c0 -0.14 0.1 -0.26 0.26 -0.26 l4.88 0 c1.52 0 2.72 0.38 3.56 1.16 c1.24 1.12 1.66 3.24 1.06 4.8 c-0.22 0.56 -0.6 1.08 -1.08 1.46 c-0.28 0.22 -0.58 0.38 -0.88 0.54 c0.86 1.36 2.16 4.12 2.16 4.12 c0.02 0.04 0.06 0.1 0.06 0.16 c0 0.14 -0.12 0.26 -0.26 0.26 l-2.96 0 c-0.08 0 -0.18 -0.06 -0.22 -0.14 l-1.74 -3.82 c-0.62 0.04 -1.1 0.02 -1.74 0.02 l0 3.68 c0 0.14 -0.12 0.26 -0.26 0.26 l-2.58 0 z M489.1825 13.280000000000001 c0 0 2.52 0.28 3.4 -0.3 c0.34 -0.22 0.54 -0.76 0.54 -1.16 c-0.02 -0.44 -0.24 -0.9 -0.6 -1.18 c-0.38 -0.32 -1.32 -0.42 -1.8 -0.42 l-1.54 0.04 l0 3.02 z M500.962 20 c-0.16 0 -0.26 -0.12 -0.26 -0.26 l0 -11.98 c0 -0.14 0.1 -0.26 0.26 -0.26 l4.88 0 c1.52 0 2.72 0.38 3.56 1.16 c1.24 1.12 1.66 3.24 1.06 4.8 c-0.22 0.56 -0.6 1.08 -1.08 1.46 c-0.28 0.22 -0.58 0.38 -0.88 0.54 c0.86 1.36 2.16 4.12 2.16 4.12 c0.02 0.04 0.06 0.1 0.06 0.16 c0 0.14 -0.12 0.26 -0.26 0.26 l-2.96 0 c-0.08 0 -0.18 -0.06 -0.22 -0.14 l-1.74 -3.82 c-0.62 0.04 -1.1 0.02 -1.74 0.02 l0 3.68 c0 0.14 -0.12 0.26 -0.26 0.26 l-2.58 0 z M503.802 13.280000000000001 c0 0 2.52 0.28 3.4 -0.3 c0.34 -0.22 0.54 -0.76 0.54 -1.16 c-0.02 -0.44 -0.24 -0.9 -0.6 -1.18 c-0.38 -0.32 -1.32 -0.42 -1.8 -0.42 l-1.54 0.04 l0 3.02 z M521.7615000000001 20 c-1.2 0 -2.3 -0.28 -3.26 -0.84 c-0.98 -0.56 -1.76 -1.36 -2.34 -2.32 c-0.56 -0.98 -0.84 -2.1 -0.84 -3.3 c0 -1.18 0.28 -2.28 0.84 -3.26 c0.58 -0.98 1.34 -1.76 2.32 -2.32 s2.08 -0.84 3.28 -0.84 c1.18 0 2.28 0.28 3.26 0.84 s1.76 1.34 2.32 2.32 c0.58 0.98 0.86 2.08 0.86 3.26 c0 1.2 -0.28 2.3 -0.86 3.28 c-0.56 0.98 -1.34 1.76 -2.32 2.34 c-0.98 0.56 -2.08 0.84 -3.26 0.84 z M521.8015 17.12 c0.58 0 1.12 -0.16 1.6 -0.46 c0.5 -0.32 0.9 -0.74 1.18 -1.3 c0.3 -0.54 0.44 -1.16 0.44 -1.82 c0 -0.64 -0.14 -1.26 -0.44 -1.8 c-0.28 -0.54 -0.68 -0.96 -1.18 -1.28 c-0.48 -0.3 -1.02 -0.46 -1.6 -0.46 c-0.6 0 -1.14 0.16 -1.64 0.46 c-0.52 0.32 -0.92 0.74 -1.22 1.28 c-0.3 0.56 -0.44 1.16 -0.44 1.8 c0 0.66 0.14 1.28 0.44 1.82 c0.32 0.54 0.72 0.98 1.22 1.28 c0.5 0.32 1.04 0.48 1.64 0.48 z M535.921 20 c-0.12 0 -0.22 -0.08 -0.24 -0.18 l-3.88 -11.98 c-0.04 -0.08 -0.02 -0.16 0.04 -0.24 c0.04 -0.06 0.12 -0.1 0.2 -0.1 l2.8 0 c0.1 0 0.22 0.08 0.24 0.18 l2.08 7.22 l1.9 -6.86 c0.02 -0.12 0.12 -0.2 0.24 -0.2 l2.54 0 c0.12 0 0.22 0.08 0.26 0.2 l1.92 6.86 l2.04 -7.22 c0.04 -0.1 0.14 -0.18 0.26 -0.18 l2.68 0 c0.08 0 0.16 0.04 0.2 0.1 c0.06 0.08 0.06 0.16 0.04 0.24 l-3.9 11.98 c-0.04 0.1 -0.12 0.18 -0.24 0.18 l-2.34 0 c-0.12 0 -0.22 -0.08 -0.24 -0.18 l-2 -7.1 l-2.04 7.1 c-0.02 0.1 -0.12 0.18 -0.24 0.18 l-2.32 0 z"/></g>
			</g>
		</svg>
	